<?xml version="1.0" encoding="UTF-8"?>
<!DOCTYPE svg PUBLIC "-//W3C//DTD SVG 1.1//EN" "http://www.w3.org/Graphics/SVG/1.1/DTD/svg11.dtd">
<!-- Creator: CorelDRAW X7 -->
<svg xmlns="http://www.w3.org/2000/svg" xml:space="preserve" width="1.02916in" height="0.688311in" version="1.1" style="shape-rendering:geometricPrecision; text-rendering:geometricPrecision; image-rendering:optimizeQuality; fill-rule:evenodd; clip-rule:evenodd"
viewBox="0 0 14647 9796"
 xmlns:xlink="http://www.w3.org/1999/xlink">
 <defs>
  <style type="text/css">
   <![CDATA[
    .fil11 {fill:#419EC0}
    .fil9 {fill:#80C5BA}
    .fil5 {fill:#A5BECD}
    .fil8 {fill:#AEB2B3}
    .fil2 {fill:#B2B2AF}
    .fil4 {fill:#C9A094}
    .fil1 {fill:#CBE0D3}
    .fil0 {fill:#CEAE97}
    .fil14 {fill:#CEC79B}
    .fil12 {fill:#D8645B}
    .fil7 {fill:#DADEE2}
    .fil10 {fill:#DEC3A1}
    .fil13 {fill:#E1E3B9}
    .fil6 {fill:#F3F0F5}
    .fil3 {fill:#FCAC70}
   ]]>
  </style>
 </defs>
 <g id="Layer_x0020_1">
  <metadata id="CorelCorpID_0Corel-Layer"/>
  <g id="building_01_1_">
   <rect class="fil0" x="8242" y="6452" width="6405" height="3344"/>
   <g>
    <g>
     <rect class="fil1" x="9184" y="6829" width="706" height="1036"/>
     <polygon class="fil2" points="9372,6923 9890,6923 9890,6829 9184,6829 9184,7865 9372,7865 "/>
    </g>
    <g>
     <rect class="fil1" x="10125" y="6829" width="659" height="1036"/>
     <polygon class="fil2" points="10267,6923 10785,6923 10785,6829 10125,6829 10125,7865 10267,7865 "/>
    </g>
    <g>
     <rect class="fil1" x="11020" y="6829" width="659" height="1036"/>
     <polygon class="fil2" points="11067,6923 11680,6923 11680,6829 11020,6829 11020,7865 11067,7865 "/>
    </g>
    <g>
     <rect class="fil1" x="11821" y="6829" width="659" height="1036"/>
     <polygon class="fil2" points="11962,6923 12480,6923 12480,6829 11821,6829 11821,7865 11962,7865 "/>
    </g>
    <g>
     <rect class="fil1" x="12716" y="6829" width="565" height="1036"/>
     <polygon class="fil2" points="12857,6923 13281,6923 13281,6829 12716,6829 12716,7865 12857,7865 "/>
    </g>
    <g>
     <rect class="fil1" x="13563" y="6829" width="659" height="1036"/>
     <polygon class="fil2" points="13752,6923 14223,6923 14223,6829 13563,6829 13563,7865 13752,7865 "/>
    </g>
    <g>
     <rect class="fil1" x="9184" y="8100" width="706" height="1036"/>
     <polygon class="fil2" points="9372,8147 9890,8147 9890,8100 9184,8100 9184,9137 9372,9137 "/>
    </g>
    <g>
     <rect class="fil1" x="10125" y="8100" width="659" height="1036"/>
     <polygon class="fil2" points="10267,8147 10785,8147 10785,8100 10125,8100 10125,9137 10267,9137 "/>
    </g>
    <g>
     <rect class="fil1" x="11020" y="8100" width="659" height="1036"/>
     <polygon class="fil2" points="11067,8147 11680,8147 11680,8100 11020,8100 11020,9137 11067,9137 "/>
    </g>
    <g>
     <rect class="fil1" x="11821" y="8100" width="659" height="1036"/>
     <polygon class="fil2" points="11962,8147 12480,8147 12480,8100 11821,8100 11821,9137 11962,9137 "/>
    </g>
    <g>
     <rect class="fil1" x="12716" y="8100" width="565" height="1036"/>
     <polygon class="fil2" points="12857,8147 13281,8147 13281,8100 12716,8100 12716,9137 12857,9137 "/>
    </g>
    <g>
     <rect class="fil1" x="13563" y="8100" width="659" height="1036"/>
     <polygon class="fil2" points="13752,8147 14223,8147 14223,8100 13563,8100 13563,9137 13752,9137 "/>
    </g>
   </g>
  </g>
  <g id="buildinf_02_1_">
   <rect class="fil3" x="3438" y="942" width="3014" height="8854"/>
   <g>
    <g>
     <rect class="fil4" x="4097" width="94.1963" height="941.91"/>
     <rect class="fil4" transform="matrix(0.314252 0.046477 -0.0464771 0.314252 3519.02 32.7168)" width="4160" height="225"/>
     <rect class="fil4" transform="matrix(0.314252 0.046477 -0.0464771 0.314252 3498.14 174.224)" width="4161" height="225"/>
     <rect class="fil4" transform="matrix(0.314252 0.046477 -0.0464771 0.314252 3477.23 315.657)" width="4160" height="225"/>
    </g>
    <path class="fil5" d="M4095 785c-107,226 -346,336 -533,248 -188,-89 -254,-344 -147,-569 107,-226 345,-337 533,-248 188,89 253,343 147,569z"/>
    <path class="fil6" d="M4023 713c-107,226 -345,337 -533,248 -188,-89 -253,-343 -147,-569 107,-226 346,-337 533,-248 188,89 254,344 147,569z"/>
   </g>
   <g>
    <g>
     <g>
      <rect class="fil7" x="3815" y="1601" width="377" height="1366"/>
      <polygon class="fil8" points="3909,1695 4191,1695 4191,1601 3815,1601 3815,2967 3909,2967 "/>
     </g>
     <g>
      <rect class="fil7" x="4380" y="1601" width="424" height="1366"/>
      <polygon class="fil8" points="4521,1695 4804,1695 4804,1601 4380,1601 4380,2967 4521,2967 "/>
     </g>
     <g>
      <rect class="fil7" x="5086" y="1601" width="330" height="1366"/>
      <polygon class="fil8" points="5180,1695 5416,1695 5416,1601 5086,1601 5086,2967 5180,2967 "/>
     </g>
     <g>
      <rect class="fil7" x="5746" y="1601" width="330" height="1366"/>
      <polygon class="fil8" points="5887,1695 6075,1695 6075,1601 5746,1601 5746,2967 5887,2967 "/>
     </g>
    </g>
    <g>
     <g>
      <rect class="fil7" x="3815" y="3155" width="377" height="1460"/>
      <polygon class="fil8" points="3909,3344 4191,3344 4191,3155 3815,3155 3815,4615 3909,4615 "/>
     </g>
     <g>
      <rect class="fil7" x="4380" y="3155" width="424" height="1460"/>
      <polygon class="fil8" points="4521,3344 4804,3344 4804,3155 4380,3155 4380,4615 4521,4615 "/>
     </g>
     <g>
      <rect class="fil7" x="5086" y="3155" width="330" height="1460"/>
      <polygon class="fil8" points="5180,3344 5416,3344 5416,3155 5086,3155 5086,4615 5180,4615 "/>
     </g>
     <g>
      <rect class="fil7" x="5746" y="3155" width="330" height="1460"/>
      <polygon class="fil8" points="5887,3344 6075,3344 6075,3155 5746,3155 5746,4615 5887,4615 "/>
     </g>
    </g>
    <g>
     <g>
      <rect class="fil7" x="3815" y="4804" width="377" height="1366"/>
      <polygon class="fil8" points="3909,4898 4191,4898 4191,4804 3815,4804 3815,6170 3909,6170 "/>
     </g>
     <g>
      <rect class="fil7" x="4380" y="4804" width="424" height="1366"/>
      <polygon class="fil8" points="4521,4898 4804,4898 4804,4804 4380,4804 4380,6170 4521,6170 "/>
     </g>
     <g>
      <rect class="fil7" x="5086" y="4804" width="330" height="1366"/>
      <polygon class="fil8" points="5180,4898 5416,4898 5416,4804 5086,4804 5086,6170 5180,6170 "/>
     </g>
     <g>
      <rect class="fil7" x="5746" y="4804" width="330" height="1366"/>
      <polygon class="fil8" points="5887,4898 6075,4898 6075,4804 5746,4804 5746,6170 5887,6170 "/>
     </g>
    </g>
    <g>
     <g>
      <rect class="fil7" x="3815" y="6358" width="377" height="1366"/>
      <polygon class="fil8" points="3909,6546 4191,6546 4191,6358 3815,6358 3815,7724 3909,7724 "/>
     </g>
     <g>
      <rect class="fil7" x="4380" y="6358" width="424" height="1366"/>
      <polygon class="fil8" points="4521,6546 4804,6546 4804,6358 4380,6358 4380,7724 4521,7724 "/>
     </g>
     <g>
      <rect class="fil7" x="5086" y="6358" width="330" height="1366"/>
      <polygon class="fil8" points="5180,6546 5416,6546 5416,6358 5086,6358 5086,7724 5180,7724 "/>
     </g>
     <g>
      <rect class="fil7" x="5746" y="6358" width="330" height="1366"/>
      <polygon class="fil8" points="5887,6546 6075,6546 6075,6358 5746,6358 5746,7724 5887,7724 "/>
     </g>
    </g>
    <g>
     <g>
      <rect class="fil7" x="3815" y="7912" width="377" height="1366"/>
      <polygon class="fil8" points="3909,8100 4191,8100 4191,7912 3815,7912 3815,9278 3909,9278 "/>
     </g>
     <g>
      <rect class="fil7" x="4380" y="7912" width="424" height="1366"/>
      <polygon class="fil8" points="4521,8100 4804,8100 4804,7912 4380,7912 4380,9278 4521,9278 "/>
     </g>
     <g>
      <rect class="fil7" x="5086" y="7912" width="330" height="1366"/>
      <polygon class="fil8" points="5180,8100 5416,8100 5416,7912 5086,7912 5086,9278 5180,9278 "/>
     </g>
     <g>
      <rect class="fil7" x="5746" y="7912" width="330" height="1366"/>
      <polygon class="fil8" points="5887,8100 6075,8100 6075,7912 5746,7912 5746,9278 5887,9278 "/>
     </g>
    </g>
   </g>
  </g>
  <g id="building_03_1_">
   <rect class="fil9" y="2543" width="3862" height="7253"/>
   <g>
    <g>
     <g>
      <rect class="fil10" x="283" y="3108" width="895" height="1036"/>
      <polygon class="fil4" points="424,3250 1177,3250 1177,3108 283,3108 283,4144 424,4144 "/>
     </g>
     <g>
      <rect class="fil10" x="1272" y="3108" width="895" height="1036"/>
      <polygon class="fil4" points="1413,3250 2166,3250 2166,3108 1272,3108 1272,4144 1413,4144 "/>
     </g>
     <g>
      <rect class="fil10" x="2355" y="3108" width="895" height="1036"/>
      <polygon class="fil4" points="2543,3250 3250,3250 3250,3108 2355,3108 2355,4144 2543,4144 "/>
     </g>
    </g>
    <g>
     <g>
      <rect class="fil10" x="283" y="4710" width="895" height="942"/>
      <polygon class="fil4" points="424,4804 1177,4804 1177,4710 283,4710 283,5651 424,5651 "/>
     </g>
     <g>
      <rect class="fil10" x="1272" y="4710" width="895" height="942"/>
      <polygon class="fil4" points="1413,4804 2166,4804 2166,4710 1272,4710 1272,5651 1413,5651 "/>
     </g>
     <g>
      <rect class="fil10" x="2355" y="4710" width="895" height="942"/>
      <polygon class="fil4" points="2543,4804 3250,4804 3250,4710 2355,4710 2355,5651 2543,5651 "/>
     </g>
    </g>
    <g>
     <g>
      <rect class="fil10" x="283" y="6169" width="895" height="989"/>
      <polygon class="fil4" points="424,6264 1177,6264 1177,6170 283,6170 283,7158 424,7158 "/>
     </g>
     <g>
      <rect class="fil10" x="1272" y="6169" width="895" height="989"/>
      <polygon class="fil4" points="1413,6264 2166,6264 2166,6170 1272,6170 1272,7158 1413,7158 "/>
     </g>
     <g>
      <rect class="fil10" x="2355" y="6169" width="895" height="989"/>
      <polygon class="fil4" points="2543,6264 3250,6264 3250,6170 2355,6170 2355,7158 2543,7158 "/>
     </g>
    </g>
    <g>
     <g>
      <rect class="fil10" x="283" y="7535" width="895" height="1083"/>
      <polygon class="fil4" points="424,7724 1177,7724 1177,7535 283,7535 283,8618 424,8618 "/>
     </g>
     <g>
      <rect class="fil10" x="1272" y="7535" width="895" height="1083"/>
      <polygon class="fil4" points="1413,7724 2166,7724 2166,7535 1272,7535 1272,8618 1413,8618 "/>
     </g>
     <g>
      <rect class="fil10" x="2355" y="7535" width="895" height="1083"/>
      <polygon class="fil4" points="2543,7724 3250,7724 3250,7535 2355,7535 2355,8618 2543,8618 "/>
     </g>
    </g>
   </g>
   <g>
    <rect class="fil11" x="2166" y="1695" width="94.1963" height="847.713"/>
    <rect class="fil11" transform="matrix(0.307263 -0.0806915 0.0806915 0.307263 1738.09 1844.01)" width="2929" height="225"/>
    <rect class="fil11" transform="matrix(0.307263 -0.0807233 0.0807233 0.307263 1774.65 1984.98)" width="2929" height="226"/>
    <rect class="fil11" transform="matrix(0.307263 -0.0807233 0.0807233 0.307263 1811.31 2122.14)" width="2930" height="225"/>
   </g>
  </g>
  <g id="building_04_1_">
   <rect class="fil12" x="5887" y="3626" width="5557" height="6169"/>
   <g>
    <g>
     <rect class="fil13" x="6264" y="4144" width="848" height="942"/>
     <polygon class="fil14" points="6358,4239 7111,4239 7111,4144 6264,4144 6264,5086 6358,5086 "/>
    </g>
    <g>
     <rect class="fil13" x="7535" y="4144" width="848" height="942"/>
     <polygon class="fil14" points="7724,4239 8383,4239 8383,4144 7535,4144 7535,5086 7724,5086 "/>
    </g>
    <g>
     <rect class="fil13" x="8854" y="4144" width="895" height="942"/>
     <polygon class="fil14" points="8995,4239 9749,4239 9749,4144 8854,4144 8854,5086 8995,5086 "/>
    </g>
    <g>
     <rect class="fil13" x="10125" y="4144" width="895" height="942"/>
     <polygon class="fil14" points="10267,4239 11020,4239 11020,4144 10125,4144 10125,5086 10267,5086 "/>
    </g>
    <g>
     <rect class="fil13" x="6264" y="5557" width="848" height="989"/>
     <polygon class="fil14" points="6358,5651 7111,5651 7111,5557 6264,5557 6264,6546 6358,6546 "/>
    </g>
    <g>
     <rect class="fil13" x="7535" y="5557" width="848" height="989"/>
     <polygon class="fil14" points="7724,5651 8383,5651 8383,5557 7535,5557 7535,6546 7724,6546 "/>
    </g>
    <g>
     <rect class="fil13" x="8854" y="5557" width="895" height="989"/>
     <polygon class="fil14" points="8995,5651 9749,5651 9749,5557 8854,5557 8854,6546 8995,6546 "/>
    </g>
    <g>
     <rect class="fil13" x="10125" y="5557" width="895" height="989"/>
     <polygon class="fil14" points="10267,5651 11020,5651 11020,5557 10125,5557 10125,6546 10267,6546 "/>
    </g>
    <g>
     <rect class="fil13" x="6264" y="6829" width="848" height="989"/>
     <polygon class="fil14" points="6358,6923 7111,6923 7111,6829 6264,6829 6264,7818 6358,7818 "/>
    </g>
    <g>
     <rect class="fil13" x="7535" y="6829" width="848" height="989"/>
     <polygon class="fil14" points="7724,6923 8383,6923 8383,6829 7535,6829 7535,7818 7724,7818 "/>
    </g>
    <g>
     <rect class="fil13" x="8854" y="6829" width="895" height="989"/>
     <polygon class="fil14" points="8995,6923 9749,6923 9749,6829 8854,6829 8854,7818 8995,7818 "/>
    </g>
    <g>
     <rect class="fil13" x="10125" y="6829" width="895" height="989"/>
     <polygon class="fil14" points="10267,6923 11020,6923 11020,6829 10125,6829 10125,7818 10267,7818 "/>
    </g>
    <g>
     <rect class="fil13" x="6264" y="8100" width="848" height="989"/>
     <polygon class="fil14" points="6358,8147 7111,8147 7111,8100 6264,8100 6264,9089 6358,9089 "/>
    </g>
    <g>
     <rect class="fil13" x="7535" y="8100" width="848" height="989"/>
     <polygon class="fil14" points="7724,8147 8383,8147 8383,8100 7535,8100 7535,9089 7724,9089 "/>
    </g>
    <g>
     <rect class="fil13" x="8854" y="8100" width="895" height="989"/>
     <polygon class="fil14" points="8995,8147 9749,8147 9749,8100 8854,8100 8854,9089 8995,9089 "/>
    </g>
    <g>
     <rect class="fil13" x="10125" y="8100" width="895" height="989"/>
     <polygon class="fil14" points="10267,8147 11020,8147 11020,8100 10125,8100 10125,9089 10267,9089 "/>
    </g>
   </g>
  </g>
 </g>
</svg>
