<?xml version="1.0" encoding="utf-8"?>
<!-- Generator: Adobe Illustrator 16.0.0, SVG Export Plug-In . SVG Version: 6.00 Build 0)  -->
<!DOCTYPE svg PUBLIC "-//W3C//DTD SVG 1.1//EN" "http://www.w3.org/Graphics/SVG/1.1/DTD/svg11.dtd">
<svg version="1.1" id="Layer_1" xmlns="http://www.w3.org/2000/svg" xmlns:xlink="http://www.w3.org/1999/xlink" x="0px" y="0px"
	 width="151.289px" height="101.285px" viewBox="29 208.715 151.289 101.285" enable-background="new 29 208.715 151.289 101.285"
	 xml:space="preserve">
<g id="kota_1">
	<g>
		<g>
			<polygon fill="#EDE1CD" points="172.117,248.348 169.887,248.348 170.258,220.121 171.745,220.121 			"/>
		</g>
		<g>
			<rect x="154.66" y="245.251" fill="#EDE1CD" width="25.628" height="64.749"/>
		</g>
		<g>
			<rect x="154.66" y="249.712" fill="#D2C0A5" width="25.628" height="10.213"/>
		</g>
		<g>
			<path fill="#A68B67" d="M162.181,242.216h-4.92c-0.306,0-0.555-0.248-0.555-0.556c0-0.306,0.249-0.555,0.555-0.555h4.92
				c0.306,0,0.555,0.249,0.555,0.555C162.736,241.968,162.487,242.216,162.181,242.216z"/>
		</g>
		<g>
			<path fill="#A68B67" d="M162.181,246.487h-4.92c-0.306,0-0.555-0.248-0.555-0.555s0.249-0.556,0.555-0.556h4.92
				c0.306,0,0.555,0.249,0.555,0.556S162.487,246.487,162.181,246.487z"/>
		</g>
		<g>
			<path fill="#A68B67" d="M162.181,251.131h-4.92c-0.306,0-0.555-0.249-0.555-0.556s0.249-0.556,0.555-0.556h4.92
				c0.306,0,0.555,0.249,0.555,0.556S162.487,251.131,162.181,251.131z"/>
		</g>
		<g>
			<path fill="#A68B67" d="M162.181,255.773h-4.92c-0.306,0-0.555-0.25-0.555-0.556c0-0.307,0.249-0.555,0.555-0.555h4.92
				c0.306,0,0.555,0.248,0.555,0.555C162.736,255.523,162.487,255.773,162.181,255.773z"/>
		</g>
		<g>
			<path fill="#A68B67" d="M162.181,260.416h-4.92c-0.306,0-0.555-0.248-0.555-0.555s0.249-0.555,0.555-0.555h4.92
				c0.306,0,0.555,0.248,0.555,0.555S162.487,260.416,162.181,260.416z"/>
		</g>
		<g>
			<path fill="#A68B67" d="M162.181,265.058h-4.92c-0.306,0-0.555-0.248-0.555-0.556c0-0.306,0.249-0.555,0.555-0.555h4.92
				c0.306,0,0.555,0.249,0.555,0.555C162.736,264.81,162.487,265.058,162.181,265.058z"/>
		</g>
		<g>
			<path fill="#A68B67" d="M162.181,269.701h-4.92c-0.306,0-0.555-0.249-0.555-0.556c0-0.306,0.249-0.555,0.555-0.555h4.92
				c0.306,0,0.555,0.249,0.555,0.555C162.736,269.452,162.487,269.701,162.181,269.701z"/>
		</g>
		<g>
			<path fill="#A68B67" d="M169.887,269.701h-4.92c-0.306,0-0.555-0.249-0.555-0.556c0-0.306,0.249-0.555,0.555-0.555h4.92
				c0.307,0,0.555,0.249,0.555,0.555C170.441,269.452,170.193,269.701,169.887,269.701z"/>
		</g>
		<g>
			<path fill="#A68B67" d="M177.595,269.701h-4.921c-0.307,0-0.556-0.249-0.556-0.556c0-0.306,0.249-0.555,0.556-0.555h4.921
				c0.307,0,0.555,0.249,0.555,0.555C178.15,269.452,177.901,269.701,177.595,269.701z"/>
		</g>
		<g>
			<path fill="#A68B67" d="M162.181,274.344h-4.92c-0.306,0-0.555-0.249-0.555-0.556c0-0.306,0.249-0.555,0.555-0.555h4.92
				c0.306,0,0.555,0.249,0.555,0.555C162.736,274.095,162.487,274.344,162.181,274.344z"/>
		</g>
		<g>
			<path fill="#A68B67" d="M169.887,274.344h-4.92c-0.306,0-0.555-0.249-0.555-0.556c0-0.306,0.249-0.555,0.555-0.555h4.92
				c0.307,0,0.555,0.249,0.555,0.555C170.441,274.095,170.193,274.344,169.887,274.344z"/>
		</g>
		<g>
			<path fill="#A68B67" d="M177.595,274.344h-4.921c-0.307,0-0.556-0.249-0.556-0.556c0-0.306,0.249-0.555,0.556-0.555h4.921
				c0.307,0,0.555,0.249,0.555,0.555C178.15,274.095,177.901,274.344,177.595,274.344z"/>
		</g>
		<g>
			<path fill="#A68B67" d="M162.181,278.987h-4.92c-0.306,0-0.555-0.249-0.555-0.556s0.249-0.555,0.555-0.555h4.92
				c0.306,0,0.555,0.248,0.555,0.555S162.487,278.987,162.181,278.987z"/>
		</g>
		<g>
			<path fill="#A68B67" d="M169.887,278.987h-4.92c-0.306,0-0.555-0.249-0.555-0.556s0.249-0.555,0.555-0.555h4.92
				c0.307,0,0.555,0.248,0.555,0.555S170.193,278.987,169.887,278.987z"/>
		</g>
		<g>
			<path fill="#A68B67" d="M177.595,278.987h-4.921c-0.307,0-0.556-0.249-0.556-0.556s0.249-0.555,0.556-0.555h4.921
				c0.307,0,0.555,0.248,0.555,0.555S177.901,278.987,177.595,278.987z"/>
		</g>
		<g>
			<path fill="#A68B67" d="M162.181,283.628h-4.92c-0.306,0-0.555-0.249-0.555-0.555c0-0.307,0.249-0.555,0.555-0.555h4.92
				c0.306,0,0.555,0.248,0.555,0.555C162.736,283.379,162.487,283.628,162.181,283.628z"/>
		</g>
		<g>
			<path fill="#A68B67" d="M169.887,283.628h-4.92c-0.306,0-0.555-0.249-0.555-0.555c0-0.307,0.249-0.555,0.555-0.555h4.92
				c0.307,0,0.555,0.248,0.555,0.555C170.441,283.379,170.193,283.628,169.887,283.628z"/>
		</g>
		<g>
			<path fill="#A68B67" d="M177.595,283.628h-4.921c-0.307,0-0.556-0.249-0.556-0.555c0-0.307,0.249-0.555,0.556-0.555h4.921
				c0.307,0,0.555,0.248,0.555,0.555C178.15,283.379,177.901,283.628,177.595,283.628z"/>
		</g>
		<g>
			<path fill="#A68B67" d="M162.181,288.272h-4.92c-0.306,0-0.555-0.249-0.555-0.556s0.249-0.555,0.555-0.555h4.92
				c0.306,0,0.555,0.248,0.555,0.555S162.487,288.272,162.181,288.272z"/>
		</g>
		<g>
			<path fill="#A68B67" d="M169.887,288.272h-4.92c-0.306,0-0.555-0.249-0.555-0.556s0.249-0.555,0.555-0.555h4.92
				c0.307,0,0.555,0.248,0.555,0.555S170.193,288.272,169.887,288.272z"/>
		</g>
		<g>
			<path fill="#A68B67" d="M177.595,288.272h-4.921c-0.307,0-0.556-0.249-0.556-0.556s0.249-0.555,0.556-0.555h4.921
				c0.307,0,0.555,0.248,0.555,0.555S177.901,288.272,177.595,288.272z"/>
		</g>
		<g>
			<path fill="#A68B67" d="M162.181,292.913h-4.92c-0.306,0-0.555-0.248-0.555-0.556c0-0.306,0.249-0.555,0.555-0.555h4.92
				c0.306,0,0.555,0.249,0.555,0.555C162.736,292.665,162.487,292.913,162.181,292.913z"/>
		</g>
		<g>
			<path fill="#A68B67" d="M169.887,292.913h-4.92c-0.306,0-0.555-0.248-0.555-0.556c0-0.306,0.249-0.555,0.555-0.555h4.92
				c0.307,0,0.555,0.249,0.555,0.555C170.441,292.665,170.193,292.913,169.887,292.913z"/>
		</g>
		<g>
			<path fill="#A68B67" d="M177.595,292.913h-4.921c-0.307,0-0.556-0.248-0.556-0.556c0-0.306,0.249-0.555,0.556-0.555h4.921
				c0.307,0,0.555,0.249,0.555,0.555C178.15,292.665,177.901,292.913,177.595,292.913z"/>
		</g>
		<g>
			<path fill="#A68B67" d="M162.181,297.557h-4.92c-0.306,0-0.555-0.249-0.555-0.556c0-0.306,0.249-0.555,0.555-0.555h4.92
				c0.306,0,0.555,0.249,0.555,0.555C162.736,297.308,162.487,297.557,162.181,297.557z"/>
		</g>
		<g>
			<path fill="#A68B67" d="M169.887,297.557h-4.92c-0.306,0-0.555-0.249-0.555-0.556c0-0.306,0.249-0.555,0.555-0.555h4.92
				c0.307,0,0.555,0.249,0.555,0.555C170.441,297.308,170.193,297.557,169.887,297.557z"/>
		</g>
		<g>
			<path fill="#A68B67" d="M177.595,297.557h-4.921c-0.307,0-0.556-0.249-0.556-0.556c0-0.306,0.249-0.555,0.556-0.555h4.921
				c0.307,0,0.555,0.249,0.555,0.555C178.15,297.308,177.901,297.557,177.595,297.557z"/>
		</g>
		<g>
			<path fill="#A68B67" d="M162.181,302.199h-4.92c-0.306,0-0.555-0.249-0.555-0.556c0-0.306,0.249-0.555,0.555-0.555h4.92
				c0.306,0,0.555,0.249,0.555,0.555C162.736,301.95,162.487,302.199,162.181,302.199z"/>
		</g>
		<g>
			<path fill="#A68B67" d="M169.887,302.199h-4.92c-0.306,0-0.555-0.249-0.555-0.556c0-0.306,0.249-0.555,0.555-0.555h4.92
				c0.307,0,0.555,0.249,0.555,0.555C170.441,301.95,170.193,302.199,169.887,302.199z"/>
		</g>
		<g>
			<path fill="#A68B67" d="M177.595,302.199h-4.921c-0.307,0-0.556-0.249-0.556-0.556c0-0.306,0.249-0.555,0.556-0.555h4.921
				c0.307,0,0.555,0.249,0.555,0.555C178.15,301.95,177.901,302.199,177.595,302.199z"/>
		</g>
		<g>
			<rect x="154.66" y="262.336" fill="#D2C0A5" width="25.628" height="1.856"/>
		</g>
		<g>
			<rect x="42.649" y="264.35" fill="#8BD6EA" width="14.283" height="45.65"/>
		</g>
		<g>
			<rect x="113.557" y="227.429" fill="#8BD6EA" width="6.316" height="7.547"/>
		</g>
		<g>
			<rect x="111.948" y="233.862" fill="#8BD6EA" width="9.408" height="70.689"/>
		</g>
		<g>
			<rect x="117.241" y="246.614" fill="#2C5E8A" width="26.275" height="63.386"/>
		</g>
		<g>
			<rect x="117.241" y="251.01" fill="#61ADDB" width="26.275" height="0.371"/>
		</g>
		<g>
			<rect x="117.241" y="255.59" fill="#61ADDB" width="26.275" height="0.37"/>
		</g>
		<g>
			<rect x="117.241" y="260.171" fill="#61ADDB" width="26.275" height="0.369"/>
		</g>
		<g>
			<rect x="117.241" y="264.752" fill="#61ADDB" width="26.275" height="0.37"/>
		</g>
		<g>
			<rect x="117.241" y="269.332" fill="#61ADDB" width="26.275" height="0.369"/>
		</g>
		<g>
			<rect x="117.241" y="273.911" fill="#61ADDB" width="26.275" height="0.371"/>
		</g>
		<g>
			<rect x="117.241" y="278.493" fill="#61ADDB" width="26.275" height="0.37"/>
		</g>
		<g>
			<rect x="117.241" y="283.074" fill="#61ADDB" width="26.275" height="0.371"/>
		</g>
		<g>
			<rect x="117.241" y="287.654" fill="#61ADDB" width="26.275" height="0.37"/>
		</g>
		<g>
			<rect x="117.241" y="292.236" fill="#61ADDB" width="26.275" height="0.37"/>
		</g>
		<g>
			<rect x="117.241" y="296.816" fill="#61ADDB" width="26.275" height="0.37"/>
		</g>
		<g>
			<rect x="117.241" y="301.396" fill="#61ADDB" width="26.275" height="0.369"/>
		</g>
		<g>
			<rect x="124.949" y="246.659" fill="#61ADDB" width="0.37" height="54.878"/>
		</g>
		<g>
			<rect x="129.962" y="246.659" fill="#61ADDB" width="0.37" height="54.878"/>
		</g>
		<g>
			<rect x="134.976" y="246.659" fill="#61ADDB" width="0.371" height="54.878"/>
		</g>
		<g>
			<rect x="139.99" y="246.659" fill="#61ADDB" width="0.371" height="54.878"/>
		</g>
		<g>
			<rect x="120.367" y="246.659" fill="#61ADDB" width="0.37" height="54.878"/>
		</g>
		<g>
			<rect x="80.998" y="233.862" fill="#72888A" width="27.608" height="76.138"/>
		</g>
		<g>
			<rect x="83.783" y="222.101" fill="#72888A" width="22.037" height="12.134"/>
		</g>
		<g>
			<rect x="86.568" y="214.425" fill="#72888A" width="16.468" height="8.048"/>
		</g>
		<g>
			<rect x="89.787" y="208.715" fill="#72888A" width="10.027" height="5.942"/>
		</g>
		<g>
			<rect x="83.227" y="236.337" fill="#94DEE2" width="5.817" height="4.086"/>
		</g>
		<g>
			<rect x="91.706" y="236.337" fill="#94DEE2" width="5.82" height="4.086"/>
		</g>
		<g>
			<polygon fill="#94DEE2" points="106.001,240.429 100.183,240.418 100.191,236.332 106.011,236.343 			"/>
		</g>
		<g>
			<rect x="85.826" y="224.447" fill="#94DEE2" width="4.775" height="3.354"/>
		</g>
		<g>
			<rect x="92.786" y="224.447" fill="#94DEE2" width="4.776" height="3.354"/>
		</g>
		<g>
			<rect x="99.746" y="224.447" fill="#94DEE2" width="4.774" height="3.354"/>
		</g>
		<g>
			<rect x="87.953" y="215.115" fill="#94DEE2" width="3.567" height="2.506"/>
		</g>
		<g>
			<rect x="93.152" y="215.115" fill="#94DEE2" width="3.568" height="2.506"/>
		</g>
		<g>
			<rect x="98.353" y="215.115" fill="#94DEE2" width="3.568" height="2.506"/>
		</g>
		<g>
			<rect x="87.953" y="218.729" fill="#94DEE2" width="3.567" height="2.506"/>
		</g>
		<g>
			<rect x="93.152" y="218.729" fill="#94DEE2" width="3.568" height="2.506"/>
		</g>
		<g>
			<rect x="98.353" y="218.729" fill="#94DEE2" width="3.568" height="2.506"/>
		</g>
		<g>
			<rect x="85.826" y="229.147" fill="#94DEE2" width="4.775" height="3.352"/>
		</g>
		<g>
			<rect x="92.786" y="229.147" fill="#94DEE2" width="4.776" height="3.352"/>
		</g>
		<g>
			<rect x="99.746" y="229.147" fill="#94DEE2" width="4.774" height="3.352"/>
		</g>
		<g>
			<rect x="83.227" y="243.209" fill="#94DEE2" width="5.817" height="4.085"/>
		</g>
		<g>
			<rect x="91.706" y="243.209" fill="#94DEE2" width="5.82" height="4.085"/>
		</g>
		<g>
			<rect x="100.188" y="243.209" fill="#94DEE2" width="5.818" height="4.085"/>
		</g>
		<g>
			<rect x="83.227" y="250.081" fill="#94DEE2" width="5.817" height="4.085"/>
		</g>
		<g>
			<rect x="91.706" y="250.081" fill="#94DEE2" width="5.82" height="4.085"/>
		</g>
		<g>
			<rect x="100.188" y="250.081" fill="#94DEE2" width="5.818" height="4.085"/>
		</g>
		<g>
			<rect x="83.227" y="256.952" fill="#94DEE2" width="5.817" height="4.083"/>
		</g>
		<g>
			<rect x="91.706" y="256.952" fill="#94DEE2" width="5.82" height="4.083"/>
		</g>
		<g>
			<rect x="100.188" y="256.952" fill="#94DEE2" width="5.818" height="4.083"/>
		</g>
		<g>
			<rect x="83.227" y="263.822" fill="#94DEE2" width="5.817" height="4.086"/>
		</g>
		<g>
			<rect x="91.706" y="263.822" fill="#94DEE2" width="5.82" height="4.086"/>
		</g>
		<g>
			<rect x="100.188" y="263.822" fill="#94DEE2" width="5.818" height="4.086"/>
		</g>
		<g>
			<rect x="83.227" y="270.694" fill="#94DEE2" width="5.817" height="4.085"/>
		</g>
		<g>
			<rect x="91.706" y="270.694" fill="#94DEE2" width="5.82" height="4.085"/>
		</g>
		<g>
			<rect x="100.188" y="270.694" fill="#94DEE2" width="5.818" height="4.085"/>
		</g>
		<g>
			<rect x="83.227" y="277.565" fill="#94DEE2" width="5.817" height="4.084"/>
		</g>
		<g>
			<rect x="91.706" y="277.565" fill="#94DEE2" width="5.82" height="4.084"/>
		</g>
		<g>
			<rect x="100.188" y="277.565" fill="#94DEE2" width="5.818" height="4.084"/>
		</g>
		<g>
			<rect x="83.227" y="284.435" fill="#94DEE2" width="5.817" height="4.085"/>
		</g>
		<g>
			<rect x="91.706" y="284.435" fill="#94DEE2" width="5.82" height="4.085"/>
		</g>
		<g>
			<rect x="100.188" y="284.435" fill="#94DEE2" width="5.818" height="4.085"/>
		</g>
		<g>
			<rect x="83.227" y="291.307" fill="#94DEE2" width="5.817" height="4.085"/>
		</g>
		<g>
			<rect x="91.706" y="291.307" fill="#94DEE2" width="5.82" height="4.085"/>
		</g>
		<g>
			<rect x="100.188" y="291.307" fill="#94DEE2" width="5.818" height="4.085"/>
		</g>
		<g>
			<rect x="83.227" y="298.178" fill="#94DEE2" width="5.817" height="4.085"/>
		</g>
		<g>
			<rect x="91.706" y="298.178" fill="#94DEE2" width="5.82" height="4.085"/>
		</g>
		<g>
			<rect x="100.188" y="298.178" fill="#94DEE2" width="5.818" height="4.085"/>
		</g>
		<g>
			<rect x="33.581" y="280.784" fill="#5582A3" width="12.38" height="5.446"/>
		</g>
		<g>
			<rect x="35.995" y="281.524" fill="#3A6C8A" width="7.551" height="4.706"/>
		</g>
		<g>
			<rect x="29" y="285.859" fill="#5582A3" width="21.543" height="24.141"/>
		</g>
		<g>
			<rect x="29.681" y="286.416" fill="#3A6C8A" width="20.18" height="16.776"/>
		</g>
		<g>
			<path fill="#71E5FF" d="M48.933,288.706c0,0.546-0.442,0.991-0.989,0.991H31.6c-0.545,0-0.989-0.445-0.989-0.991
				c0-0.547,0.444-0.99,0.989-0.99h16.343C48.489,287.717,48.933,288.16,48.933,288.706"/>
		</g>
		<g>
			<path fill="#71E5FF" d="M48.933,291.616c0,0.548-0.442,0.991-0.989,0.991H31.6c-0.545,0-0.989-0.443-0.989-0.991
				c0-0.547,0.444-0.991,0.989-0.991h16.343C48.489,290.625,48.933,291.068,48.933,291.616"/>
		</g>
		<g>
			<path fill="#71E5FF" d="M48.933,294.525c0,0.546-0.442,0.99-0.989,0.99H31.6c-0.545,0-0.989-0.444-0.989-0.99
				s0.444-0.99,0.989-0.99h16.343C48.489,293.535,48.933,293.979,48.933,294.525"/>
		</g>
		<g>
			<path fill="#71E5FF" d="M48.933,297.436c0,0.547-0.442,0.989-0.989,0.989H31.6c-0.545,0-0.989-0.441-0.989-0.989
				s0.444-0.992,0.989-0.992h16.343C48.489,296.444,48.933,296.888,48.933,297.436"/>
		</g>
		<g>
			<path fill="#71E5FF" d="M48.933,300.344c0,0.547-0.442,0.993-0.989,0.993H31.6c-0.545,0-0.989-0.445-0.989-0.993
				c0-0.547,0.444-0.99,0.989-0.99h16.343C48.489,299.354,48.933,299.797,48.933,300.344"/>
		</g>
		<g opacity="0.2">
			<g>
				<g>
					<g>
						<defs>
							<rect id="SVGID_1_" x="39.771" y="280.784" width="10.772" height="29.216"/>
						</defs>
						<clipPath id="SVGID_2_">
							<use xlink:href="#SVGID_1_"  overflow="visible"/>
						</clipPath>
						<g clip-path="url(#SVGID_2_)">
							<polygon fill="#4D5A85" points="39.771,280.784 39.771,310 50.543,310 50.543,285.881 45.961,285.881 45.961,280.784 							
								"/>
						</g>
					</g>
				</g>
			</g>
		</g>
		<g>
			<path fill="#DB472A" d="M60.817,247.356c0-0.41-0.331-0.742-0.742-0.742h-2.397c-0.412,0-0.745,0.331-0.745,0.742
				s0.333,0.742,0.745,0.742h2.397C60.486,248.099,60.817,247.768,60.817,247.356"/>
		</g>
		<g>
			<rect x="58.489" y="238.712" fill="#DB472A" width="0.773" height="8.274"/>
		</g>
		<g>
			<rect x="52.337" y="247.356" fill="#E28A32" width="37.512" height="62.644"/>
		</g>
		<g>
			<rect x="52.337" y="247.356" fill="#E28A32" width="37.512" height="55.836"/>
		</g>
		<g>
			<path fill="#71E5FF" d="M59.116,251.197c0,0.254-0.206,0.458-0.456,0.458h-3.451c-0.251,0-0.458-0.205-0.458-0.458v-1.713
				c0-0.253,0.206-0.457,0.458-0.457h3.451c0.25,0,0.456,0.204,0.456,0.457V251.197z"/>
		</g>
		<g>
			<path fill="#71E5FF" d="M64.826,251.197c0,0.254-0.204,0.458-0.457,0.458h-3.451c-0.252,0-0.457-0.205-0.457-0.458v-1.713
				c0-0.253,0.204-0.457,0.457-0.457h3.451c0.252,0,0.457,0.204,0.457,0.457V251.197z"/>
		</g>
		<g>
			<path fill="#71E5FF" d="M70.537,251.197c0,0.254-0.204,0.458-0.456,0.458H66.63c-0.252,0-0.458-0.205-0.458-0.458v-1.713
				c0-0.253,0.206-0.457,0.458-0.457h3.451c0.252,0,0.456,0.204,0.456,0.457V251.197z"/>
		</g>
		<g>
			<path fill="#71E5FF" d="M76.247,251.197c0,0.254-0.205,0.458-0.457,0.458h-3.45c-0.253,0-0.458-0.205-0.458-0.458v-1.713
				c0-0.253,0.205-0.457,0.458-0.457h3.45c0.252,0,0.457,0.204,0.457,0.457V251.197z"/>
		</g>
		<g>
			<path fill="#71E5FF" d="M81.958,251.197c0,0.254-0.206,0.458-0.458,0.458h-3.45c-0.253,0-0.458-0.205-0.458-0.458v-1.713
				c0-0.253,0.205-0.457,0.458-0.457h3.45c0.252,0,0.458,0.204,0.458,0.457V251.197z"/>
		</g>
		<g>
			<path fill="#71E5FF" d="M87.667,251.197c0,0.254-0.204,0.458-0.456,0.458H83.76c-0.252,0-0.456-0.205-0.456-0.458v-1.713
				c0-0.253,0.205-0.457,0.456-0.457h3.451c0.252,0,0.456,0.204,0.456,0.457V251.197z"/>
		</g>
		<g>
			<path fill="#71E5FF" d="M59.116,289.563c0,0.252-0.206,0.455-0.456,0.455h-3.451c-0.251,0-0.458-0.204-0.458-0.455v-1.714
				c0-0.253,0.206-0.457,0.458-0.457h3.451c0.25,0,0.456,0.205,0.456,0.457V289.563z"/>
		</g>
		<g>
			<path fill="#71E5FF" d="M64.826,289.563c0,0.252-0.204,0.455-0.457,0.455h-3.451c-0.252,0-0.457-0.204-0.457-0.455v-1.714
				c0-0.253,0.204-0.457,0.457-0.457h3.451c0.252,0,0.457,0.205,0.457,0.457V289.563z"/>
		</g>
		<g>
			<path fill="#71E5FF" d="M70.537,289.563c0,0.252-0.204,0.455-0.456,0.455H66.63c-0.252,0-0.458-0.204-0.458-0.455v-1.714
				c0-0.253,0.206-0.457,0.458-0.457h3.451c0.252,0,0.456,0.205,0.456,0.457V289.563z"/>
		</g>
		<g>
			<path fill="#71E5FF" d="M76.247,289.563c0,0.252-0.205,0.455-0.457,0.455h-3.45c-0.253,0-0.458-0.204-0.458-0.455v-1.714
				c0-0.253,0.205-0.457,0.458-0.457h3.45c0.252,0,0.457,0.205,0.457,0.457V289.563z"/>
		</g>
		<g>
			<path fill="#71E5FF" d="M81.958,289.563c0,0.252-0.206,0.455-0.458,0.455h-3.45c-0.253,0-0.458-0.204-0.458-0.455v-1.714
				c0-0.253,0.205-0.457,0.458-0.457h3.45c0.252,0,0.458,0.205,0.458,0.457V289.563z"/>
		</g>
		<g>
			<path fill="#71E5FF" d="M87.667,289.563c0,0.252-0.204,0.455-0.456,0.455H83.76c-0.252,0-0.456-0.204-0.456-0.455v-1.714
				c0-0.253,0.205-0.457,0.456-0.457h3.451c0.252,0,0.456,0.205,0.456,0.457V289.563z"/>
		</g>
		<g>
			<path fill="#71E5FF" d="M59.116,293.463c0,0.253-0.206,0.459-0.456,0.459h-3.451c-0.251,0-0.458-0.207-0.458-0.459v-1.715
				c0-0.25,0.206-0.455,0.458-0.455h3.451c0.25,0,0.456,0.206,0.456,0.455V293.463z"/>
		</g>
		<g>
			<path fill="#71E5FF" d="M64.826,293.463c0,0.253-0.204,0.459-0.457,0.459h-3.451c-0.252,0-0.457-0.207-0.457-0.459v-1.715
				c0-0.25,0.204-0.455,0.457-0.455h3.451c0.252,0,0.457,0.206,0.457,0.455V293.463z"/>
		</g>
		<g>
			<path fill="#71E5FF" d="M70.537,293.463c0,0.253-0.204,0.459-0.456,0.459H66.63c-0.252,0-0.458-0.207-0.458-0.459v-1.715
				c0-0.25,0.206-0.455,0.458-0.455h3.451c0.252,0,0.456,0.206,0.456,0.455V293.463z"/>
		</g>
		<g>
			<path fill="#71E5FF" d="M76.247,293.463c0,0.253-0.205,0.459-0.457,0.459h-3.45c-0.253,0-0.458-0.207-0.458-0.459v-1.715
				c0-0.25,0.205-0.455,0.458-0.455h3.45c0.252,0,0.457,0.206,0.457,0.455V293.463z"/>
		</g>
		<g>
			<path fill="#71E5FF" d="M81.958,293.463c0,0.253-0.206,0.459-0.458,0.459h-3.45c-0.253,0-0.458-0.207-0.458-0.459v-1.715
				c0-0.25,0.205-0.455,0.458-0.455h3.45c0.252,0,0.458,0.206,0.458,0.455V293.463z"/>
		</g>
		<g>
			<path fill="#71E5FF" d="M87.667,293.463c0,0.253-0.204,0.459-0.456,0.459H83.76c-0.252,0-0.456-0.207-0.456-0.459v-1.715
				c0-0.25,0.205-0.455,0.456-0.455h3.451c0.252,0,0.456,0.206,0.456,0.455V293.463z"/>
		</g>
		<g>
			<path fill="#71E5FF" d="M59.116,297.362c0,0.253-0.206,0.457-0.456,0.457h-3.451c-0.251,0-0.458-0.204-0.458-0.457v-1.713
				c0-0.254,0.206-0.457,0.458-0.457h3.451c0.25,0,0.456,0.204,0.456,0.457V297.362z"/>
		</g>
		<g>
			<path fill="#71E5FF" d="M64.826,297.362c0,0.253-0.204,0.457-0.457,0.457h-3.451c-0.252,0-0.457-0.204-0.457-0.457v-1.713
				c0-0.254,0.204-0.457,0.457-0.457h3.451c0.252,0,0.457,0.204,0.457,0.457V297.362z"/>
		</g>
		<g>
			<path fill="#71E5FF" d="M70.537,297.362c0,0.253-0.204,0.457-0.456,0.457H66.63c-0.252,0-0.458-0.204-0.458-0.457v-1.713
				c0-0.254,0.206-0.457,0.458-0.457h3.451c0.252,0,0.456,0.204,0.456,0.457V297.362z"/>
		</g>
		<g>
			<path fill="#71E5FF" d="M76.247,297.362c0,0.253-0.205,0.457-0.457,0.457h-3.45c-0.253,0-0.458-0.204-0.458-0.457v-1.713
				c0-0.254,0.205-0.457,0.458-0.457h3.45c0.252,0,0.457,0.204,0.457,0.457V297.362z"/>
		</g>
		<g>
			<path fill="#71E5FF" d="M81.958,297.362c0,0.253-0.206,0.457-0.458,0.457h-3.45c-0.253,0-0.458-0.204-0.458-0.457v-1.713
				c0-0.254,0.205-0.457,0.458-0.457h3.45c0.252,0,0.458,0.204,0.458,0.457V297.362z"/>
		</g>
		<g>
			<path fill="#71E5FF" d="M87.667,297.362c0,0.253-0.204,0.457-0.456,0.457H83.76c-0.252,0-0.456-0.204-0.456-0.457v-1.713
				c0-0.254,0.205-0.457,0.456-0.457h3.451c0.252,0,0.456,0.204,0.456,0.457V297.362z"/>
		</g>
		<g>
			<path fill="#71E5FF" d="M59.116,301.263c0,0.253-0.206,0.458-0.456,0.458h-3.451c-0.251,0-0.458-0.205-0.458-0.458v-1.714
				c0-0.253,0.206-0.456,0.458-0.456h3.451c0.25,0,0.456,0.204,0.456,0.456V301.263z"/>
		</g>
		<g>
			<path fill="#71E5FF" d="M64.826,301.263c0,0.253-0.204,0.458-0.457,0.458h-3.451c-0.252,0-0.457-0.205-0.457-0.458v-1.714
				c0-0.253,0.204-0.456,0.457-0.456h3.451c0.252,0,0.457,0.204,0.457,0.456V301.263z"/>
		</g>
		<g>
			<path fill="#71E5FF" d="M70.537,301.263c0,0.253-0.204,0.458-0.456,0.458H66.63c-0.252,0-0.458-0.205-0.458-0.458v-1.714
				c0-0.253,0.206-0.456,0.458-0.456h3.451c0.252,0,0.456,0.204,0.456,0.456V301.263z"/>
		</g>
		<g>
			<path fill="#71E5FF" d="M76.247,301.263c0,0.253-0.205,0.458-0.457,0.458h-3.45c-0.253,0-0.458-0.205-0.458-0.458v-1.714
				c0-0.253,0.205-0.456,0.458-0.456h3.45c0.252,0,0.457,0.204,0.457,0.456V301.263z"/>
		</g>
		<g>
			<path fill="#71E5FF" d="M81.958,301.263c0,0.253-0.206,0.458-0.458,0.458h-3.45c-0.253,0-0.458-0.205-0.458-0.458v-1.714
				c0-0.253,0.205-0.456,0.458-0.456h3.45c0.252,0,0.458,0.204,0.458,0.456V301.263z"/>
		</g>
		<g>
			<path fill="#71E5FF" d="M87.667,301.263c0,0.253-0.204,0.458-0.456,0.458H83.76c-0.252,0-0.456-0.205-0.456-0.458v-1.714
				c0-0.253,0.205-0.456,0.456-0.456h3.451c0.252,0,0.456,0.204,0.456,0.456V301.263z"/>
		</g>
		<g>
			<path fill="#71E5FF" d="M59.116,284.412c0,0.253-0.206,0.456-0.456,0.456h-3.451c-0.251,0-0.458-0.204-0.458-0.456v-30.236
				c0-0.253,0.206-0.456,0.458-0.456h3.451c0.25,0,0.456,0.204,0.456,0.456V284.412z"/>
		</g>
		<g>
			<path fill="#E28A32" d="M59.116,256.58h-4.365c-0.204,0-0.37-0.166-0.37-0.371c0-0.204,0.166-0.369,0.37-0.369h4.365
				c0.205,0,0.371,0.165,0.371,0.369C59.486,256.414,59.32,256.58,59.116,256.58z"/>
		</g>
		<g>
			<path fill="#E28A32" d="M59.116,259.859h-4.365c-0.204,0-0.37-0.166-0.37-0.369c0-0.205,0.166-0.371,0.37-0.371h4.365
				c0.205,0,0.371,0.166,0.371,0.371C59.486,259.693,59.32,259.859,59.116,259.859z"/>
		</g>
		<g>
			<path fill="#E28A32" d="M59.116,263.14h-4.365c-0.204,0-0.37-0.166-0.37-0.37c0-0.205,0.166-0.37,0.37-0.37h4.365
				c0.205,0,0.371,0.165,0.371,0.37C59.486,262.974,59.32,263.14,59.116,263.14z"/>
		</g>
		<g>
			<path fill="#E28A32" d="M59.116,266.423h-4.365c-0.204,0-0.37-0.166-0.37-0.371c0-0.204,0.166-0.369,0.37-0.369h4.365
				c0.205,0,0.371,0.165,0.371,0.369C59.486,266.257,59.32,266.423,59.116,266.423z"/>
		</g>
		<g>
			<path fill="#E28A32" d="M59.116,269.702h-4.365c-0.204,0-0.37-0.165-0.37-0.369c0-0.205,0.166-0.371,0.37-0.371h4.365
				c0.205,0,0.371,0.166,0.371,0.371C59.486,269.537,59.32,269.702,59.116,269.702z"/>
		</g>
		<g>
			<path fill="#E28A32" d="M59.116,272.982h-4.365c-0.204,0-0.37-0.165-0.37-0.37s0.166-0.37,0.37-0.37h4.365
				c0.205,0,0.371,0.165,0.371,0.37S59.32,272.982,59.116,272.982z"/>
		</g>
		<g>
			<path fill="#E28A32" d="M59.116,276.263h-4.365c-0.204,0-0.37-0.166-0.37-0.37c0-0.205,0.166-0.37,0.37-0.37h4.365
				c0.205,0,0.371,0.165,0.371,0.37C59.486,276.097,59.32,276.263,59.116,276.263z"/>
		</g>
		<g>
			<path fill="#E28A32" d="M59.116,279.544h-4.365c-0.204,0-0.37-0.165-0.37-0.37c0-0.204,0.166-0.37,0.37-0.37h4.365
				c0.205,0,0.371,0.166,0.371,0.37C59.486,279.379,59.32,279.544,59.116,279.544z"/>
		</g>
		<g>
			<path fill="#E28A32" d="M59.116,282.825h-4.365c-0.204,0-0.37-0.165-0.37-0.37c0-0.204,0.166-0.369,0.37-0.369h4.365
				c0.205,0,0.371,0.165,0.371,0.369C59.486,282.66,59.32,282.825,59.116,282.825z"/>
		</g>
		<g>
			<path fill="#71E5FF" d="M64.826,284.412c0,0.253-0.204,0.456-0.457,0.456h-3.451c-0.252,0-0.457-0.204-0.457-0.456v-30.236
				c0-0.253,0.204-0.456,0.457-0.456h3.451c0.252,0,0.457,0.204,0.457,0.456V284.412z"/>
		</g>
		<g>
			<path fill="#E28A32" d="M64.826,256.58h-4.364c-0.205,0-0.37-0.166-0.37-0.371c0-0.204,0.166-0.369,0.37-0.369h4.364
				c0.204,0,0.37,0.165,0.37,0.369C65.196,256.414,65.03,256.58,64.826,256.58z"/>
		</g>
		<g>
			<path fill="#E28A32" d="M64.826,259.859h-4.364c-0.205,0-0.37-0.166-0.37-0.369c0-0.205,0.166-0.371,0.37-0.371h4.364
				c0.204,0,0.37,0.166,0.37,0.371C65.196,259.693,65.03,259.859,64.826,259.859z"/>
		</g>
		<g>
			<path fill="#E28A32" d="M64.826,263.14h-4.364c-0.205,0-0.37-0.166-0.37-0.37c0-0.205,0.166-0.37,0.37-0.37h4.364
				c0.204,0,0.37,0.165,0.37,0.37C65.196,262.974,65.03,263.14,64.826,263.14z"/>
		</g>
		<g>
			<path fill="#E28A32" d="M64.826,266.423h-4.364c-0.205,0-0.37-0.166-0.37-0.371c0-0.204,0.166-0.369,0.37-0.369h4.364
				c0.204,0,0.37,0.165,0.37,0.369C65.196,266.257,65.03,266.423,64.826,266.423z"/>
		</g>
		<g>
			<path fill="#E28A32" d="M64.826,269.702h-4.364c-0.205,0-0.37-0.165-0.37-0.369c0-0.205,0.166-0.371,0.37-0.371h4.364
				c0.204,0,0.37,0.166,0.37,0.371C65.196,269.537,65.03,269.702,64.826,269.702z"/>
		</g>
		<g>
			<path fill="#E28A32" d="M64.826,272.982h-4.364c-0.205,0-0.37-0.165-0.37-0.37s0.166-0.37,0.37-0.37h4.364
				c0.204,0,0.37,0.165,0.37,0.37S65.03,272.982,64.826,272.982z"/>
		</g>
		<g>
			<path fill="#E28A32" d="M64.826,276.263h-4.364c-0.205,0-0.37-0.166-0.37-0.37c0-0.205,0.166-0.37,0.37-0.37h4.364
				c0.204,0,0.37,0.165,0.37,0.37C65.196,276.097,65.03,276.263,64.826,276.263z"/>
		</g>
		<g>
			<path fill="#E28A32" d="M64.826,279.544h-4.364c-0.205,0-0.37-0.165-0.37-0.37c0-0.204,0.166-0.37,0.37-0.37h4.364
				c0.204,0,0.37,0.166,0.37,0.37C65.196,279.379,65.03,279.544,64.826,279.544z"/>
		</g>
		<g>
			<path fill="#E28A32" d="M64.826,282.825h-4.364c-0.205,0-0.37-0.165-0.37-0.37c0-0.204,0.166-0.369,0.37-0.369h4.364
				c0.204,0,0.37,0.165,0.37,0.369C65.196,282.66,65.03,282.825,64.826,282.825z"/>
		</g>
		<g>
			<path fill="#71E5FF" d="M70.537,284.412c0,0.253-0.204,0.456-0.456,0.456H66.63c-0.252,0-0.458-0.204-0.458-0.456v-30.236
				c0-0.253,0.206-0.456,0.458-0.456h3.451c0.252,0,0.456,0.204,0.456,0.456V284.412z"/>
		</g>
		<g>
			<path fill="#E28A32" d="M70.537,256.58h-4.365c-0.205,0-0.37-0.166-0.37-0.371c0-0.204,0.166-0.369,0.37-0.369h4.365
				c0.205,0,0.37,0.165,0.37,0.369C70.907,256.414,70.741,256.58,70.537,256.58z"/>
		</g>
		<g>
			<path fill="#E28A32" d="M70.537,259.859h-4.365c-0.205,0-0.37-0.166-0.37-0.369c0-0.205,0.166-0.371,0.37-0.371h4.365
				c0.205,0,0.37,0.166,0.37,0.371C70.907,259.693,70.741,259.859,70.537,259.859z"/>
		</g>
		<g>
			<path fill="#E28A32" d="M70.537,263.14h-4.365c-0.205,0-0.37-0.166-0.37-0.37c0-0.205,0.166-0.37,0.37-0.37h4.365
				c0.205,0,0.37,0.165,0.37,0.37C70.907,262.974,70.741,263.14,70.537,263.14z"/>
		</g>
		<g>
			<path fill="#E28A32" d="M70.537,266.423h-4.365c-0.205,0-0.37-0.166-0.37-0.371c0-0.204,0.166-0.369,0.37-0.369h4.365
				c0.205,0,0.37,0.165,0.37,0.369C70.907,266.257,70.741,266.423,70.537,266.423z"/>
		</g>
		<g>
			<path fill="#E28A32" d="M70.537,269.702h-4.365c-0.205,0-0.37-0.165-0.37-0.369c0-0.205,0.166-0.371,0.37-0.371h4.365
				c0.205,0,0.37,0.166,0.37,0.371C70.907,269.537,70.741,269.702,70.537,269.702z"/>
		</g>
		<g>
			<path fill="#E28A32" d="M70.537,272.982h-4.365c-0.205,0-0.37-0.165-0.37-0.37s0.166-0.37,0.37-0.37h4.365
				c0.205,0,0.37,0.165,0.37,0.37S70.741,272.982,70.537,272.982z"/>
		</g>
		<g>
			<path fill="#E28A32" d="M70.537,276.263h-4.365c-0.205,0-0.37-0.166-0.37-0.37c0-0.205,0.166-0.37,0.37-0.37h4.365
				c0.205,0,0.37,0.165,0.37,0.37C70.907,276.097,70.741,276.263,70.537,276.263z"/>
		</g>
		<g>
			<path fill="#E28A32" d="M70.537,279.544h-4.365c-0.205,0-0.37-0.165-0.37-0.37c0-0.204,0.166-0.37,0.37-0.37h4.365
				c0.205,0,0.37,0.166,0.37,0.37C70.907,279.379,70.741,279.544,70.537,279.544z"/>
		</g>
		<g>
			<path fill="#E28A32" d="M70.537,282.825h-4.365c-0.205,0-0.37-0.165-0.37-0.37c0-0.204,0.166-0.369,0.37-0.369h4.365
				c0.205,0,0.37,0.165,0.37,0.369C70.907,282.66,70.741,282.825,70.537,282.825z"/>
		</g>
		<g>
			<path fill="#71E5FF" d="M76.247,284.412c0,0.253-0.205,0.456-0.457,0.456h-3.45c-0.253,0-0.458-0.204-0.458-0.456v-30.236
				c0-0.253,0.205-0.456,0.458-0.456h3.45c0.252,0,0.457,0.204,0.457,0.456V284.412z"/>
		</g>
		<g>
			<path fill="#E28A32" d="M76.247,256.58h-4.365c-0.204,0-0.37-0.166-0.37-0.371c0-0.204,0.166-0.369,0.37-0.369h4.365
				c0.205,0,0.37,0.165,0.37,0.369C76.617,256.414,76.452,256.58,76.247,256.58z"/>
		</g>
		<g>
			<path fill="#E28A32" d="M76.247,259.859h-4.365c-0.204,0-0.37-0.166-0.37-0.369c0-0.205,0.166-0.371,0.37-0.371h4.365
				c0.205,0,0.37,0.166,0.37,0.371C76.617,259.693,76.452,259.859,76.247,259.859z"/>
		</g>
		<g>
			<path fill="#E28A32" d="M76.247,263.14h-4.365c-0.204,0-0.37-0.166-0.37-0.37c0-0.205,0.166-0.37,0.37-0.37h4.365
				c0.205,0,0.37,0.165,0.37,0.37C76.617,262.974,76.452,263.14,76.247,263.14z"/>
		</g>
		<g>
			<path fill="#E28A32" d="M76.247,266.423h-4.365c-0.204,0-0.37-0.166-0.37-0.371c0-0.204,0.166-0.369,0.37-0.369h4.365
				c0.205,0,0.37,0.165,0.37,0.369C76.617,266.257,76.452,266.423,76.247,266.423z"/>
		</g>
		<g>
			<path fill="#E28A32" d="M76.247,269.702h-4.365c-0.204,0-0.37-0.165-0.37-0.369c0-0.205,0.166-0.371,0.37-0.371h4.365
				c0.205,0,0.37,0.166,0.37,0.371C76.617,269.537,76.452,269.702,76.247,269.702z"/>
		</g>
		<g>
			<path fill="#E28A32" d="M76.247,272.982h-4.365c-0.204,0-0.37-0.165-0.37-0.37s0.166-0.37,0.37-0.37h4.365
				c0.205,0,0.37,0.165,0.37,0.37S76.452,272.982,76.247,272.982z"/>
		</g>
		<g>
			<path fill="#E28A32" d="M76.247,276.263h-4.365c-0.204,0-0.37-0.166-0.37-0.37c0-0.205,0.166-0.37,0.37-0.37h4.365
				c0.205,0,0.37,0.165,0.37,0.37C76.617,276.097,76.452,276.263,76.247,276.263z"/>
		</g>
		<g>
			<path fill="#E28A32" d="M76.247,279.544h-4.365c-0.204,0-0.37-0.165-0.37-0.37c0-0.204,0.166-0.37,0.37-0.37h4.365
				c0.205,0,0.37,0.166,0.37,0.37C76.617,279.379,76.452,279.544,76.247,279.544z"/>
		</g>
		<g>
			<path fill="#E28A32" d="M76.247,282.825h-4.365c-0.204,0-0.37-0.165-0.37-0.37c0-0.204,0.166-0.369,0.37-0.369h4.365
				c0.205,0,0.37,0.165,0.37,0.369C76.617,282.66,76.452,282.825,76.247,282.825z"/>
		</g>
		<g>
			<path fill="#71E5FF" d="M81.958,284.412c0,0.253-0.206,0.456-0.458,0.456h-3.45c-0.253,0-0.458-0.204-0.458-0.456v-30.236
				c0-0.253,0.205-0.456,0.458-0.456h3.45c0.252,0,0.458,0.204,0.458,0.456V284.412z"/>
		</g>
		<g>
			<path fill="#E28A32" d="M81.958,256.58h-4.365c-0.204,0-0.37-0.166-0.37-0.371c0-0.204,0.166-0.369,0.37-0.369h4.365
				c0.205,0,0.37,0.165,0.37,0.369C82.327,256.414,82.162,256.58,81.958,256.58z"/>
		</g>
		<g>
			<path fill="#E28A32" d="M81.958,259.859h-4.365c-0.204,0-0.37-0.166-0.37-0.369c0-0.205,0.166-0.371,0.37-0.371h4.365
				c0.205,0,0.37,0.166,0.37,0.371C82.327,259.693,82.162,259.859,81.958,259.859z"/>
		</g>
		<g>
			<path fill="#E28A32" d="M81.958,263.14h-4.365c-0.204,0-0.37-0.166-0.37-0.37c0-0.205,0.166-0.37,0.37-0.37h4.365
				c0.205,0,0.37,0.165,0.37,0.37C82.327,262.974,82.162,263.14,81.958,263.14z"/>
		</g>
		<g>
			<path fill="#E28A32" d="M81.958,266.423h-4.365c-0.204,0-0.37-0.166-0.37-0.371c0-0.204,0.166-0.369,0.37-0.369h4.365
				c0.205,0,0.37,0.165,0.37,0.369C82.327,266.257,82.162,266.423,81.958,266.423z"/>
		</g>
		<g>
			<path fill="#E28A32" d="M81.958,269.702h-4.365c-0.204,0-0.37-0.165-0.37-0.369c0-0.205,0.166-0.371,0.37-0.371h4.365
				c0.205,0,0.37,0.166,0.37,0.371C82.327,269.537,82.162,269.702,81.958,269.702z"/>
		</g>
		<g>
			<path fill="#E28A32" d="M81.958,272.982h-4.365c-0.204,0-0.37-0.165-0.37-0.37s0.166-0.37,0.37-0.37h4.365
				c0.205,0,0.37,0.165,0.37,0.37S82.162,272.982,81.958,272.982z"/>
		</g>
		<g>
			<path fill="#E28A32" d="M81.958,276.263h-4.365c-0.204,0-0.37-0.166-0.37-0.37c0-0.205,0.166-0.37,0.37-0.37h4.365
				c0.205,0,0.37,0.165,0.37,0.37C82.327,276.097,82.162,276.263,81.958,276.263z"/>
		</g>
		<g>
			<path fill="#E28A32" d="M81.958,279.544h-4.365c-0.204,0-0.37-0.165-0.37-0.37c0-0.204,0.166-0.37,0.37-0.37h4.365
				c0.205,0,0.37,0.166,0.37,0.37C82.327,279.379,82.162,279.544,81.958,279.544z"/>
		</g>
		<g>
			<path fill="#E28A32" d="M81.958,282.825h-4.365c-0.204,0-0.37-0.165-0.37-0.37c0-0.204,0.166-0.369,0.37-0.369h4.365
				c0.205,0,0.37,0.165,0.37,0.369C82.327,282.66,82.162,282.825,81.958,282.825z"/>
		</g>
		<g>
			<path fill="#71E5FF" d="M87.667,284.412c0,0.253-0.204,0.456-0.456,0.456H83.76c-0.252,0-0.456-0.204-0.456-0.456v-30.236
				c0-0.253,0.205-0.456,0.456-0.456h3.451c0.252,0,0.456,0.204,0.456,0.456V284.412z"/>
		</g>
		<g>
			<path fill="#E28A32" d="M87.667,256.58h-4.363c-0.204,0-0.37-0.166-0.37-0.371c0-0.204,0.166-0.369,0.37-0.369h4.363
				c0.205,0,0.37,0.165,0.37,0.369C88.037,256.414,87.872,256.58,87.667,256.58z"/>
		</g>
		<g>
			<path fill="#E28A32" d="M87.667,259.859h-4.363c-0.204,0-0.37-0.166-0.37-0.369c0-0.205,0.166-0.371,0.37-0.371h4.363
				c0.205,0,0.37,0.166,0.37,0.371C88.037,259.693,87.872,259.859,87.667,259.859z"/>
		</g>
		<g>
			<path fill="#E28A32" d="M87.667,263.14h-4.363c-0.204,0-0.37-0.166-0.37-0.37c0-0.205,0.166-0.37,0.37-0.37h4.363
				c0.205,0,0.37,0.165,0.37,0.37C88.037,262.974,87.872,263.14,87.667,263.14z"/>
		</g>
		<g>
			<path fill="#E28A32" d="M87.667,266.423h-4.363c-0.204,0-0.37-0.166-0.37-0.371c0-0.204,0.166-0.369,0.37-0.369h4.363
				c0.205,0,0.37,0.165,0.37,0.369C88.037,266.257,87.872,266.423,87.667,266.423z"/>
		</g>
		<g>
			<path fill="#E28A32" d="M87.667,269.702h-4.363c-0.204,0-0.37-0.165-0.37-0.369c0-0.205,0.166-0.371,0.37-0.371h4.363
				c0.205,0,0.37,0.166,0.37,0.371C88.037,269.537,87.872,269.702,87.667,269.702z"/>
		</g>
		<g>
			<path fill="#E28A32" d="M87.667,272.982h-4.363c-0.204,0-0.37-0.165-0.37-0.37s0.166-0.37,0.37-0.37h4.363
				c0.205,0,0.37,0.165,0.37,0.37S87.872,272.982,87.667,272.982z"/>
		</g>
		<g>
			<path fill="#E28A32" d="M87.667,276.263h-4.363c-0.204,0-0.37-0.166-0.37-0.37c0-0.205,0.166-0.37,0.37-0.37h4.363
				c0.205,0,0.37,0.165,0.37,0.37C88.037,276.097,87.872,276.263,87.667,276.263z"/>
		</g>
		<g>
			<path fill="#E28A32" d="M87.667,279.544h-4.363c-0.204,0-0.37-0.165-0.37-0.37c0-0.204,0.166-0.37,0.37-0.37h4.363
				c0.205,0,0.37,0.166,0.37,0.37C88.037,279.379,87.872,279.544,87.667,279.544z"/>
		</g>
		<g>
			<path fill="#E28A32" d="M87.667,282.825h-4.363c-0.204,0-0.37-0.165-0.37-0.37c0-0.204,0.166-0.369,0.37-0.369h4.363
				c0.205,0,0.37,0.165,0.37,0.369C88.037,282.66,87.872,282.825,87.667,282.825z"/>
		</g>
		<g>
			<rect x="52.337" y="285.676" fill="#FFC876" width="37.512" height="0.74"/>
		</g>
		<g>
			<rect x="52.337" y="252.185" fill="#FFC876" width="37.512" height="0.741"/>
		</g>
		<g>
			<rect x="98.95" y="262.77" fill="#82E4F4" width="23.77" height="47.23"/>
		</g>
		<g>
			<rect x="100.559" y="265.927" fill="#C5FCFF" width="20.798" height="2.663"/>
		</g>
		<g>
			<rect x="100.559" y="269.394" fill="#C5FCFF" width="20.798" height="2.661"/>
		</g>
		<g>
			<rect x="100.559" y="272.859" fill="#C5FCFF" width="20.798" height="2.661"/>
		</g>
		<g>
			<rect x="100.559" y="276.326" fill="#C5FCFF" width="20.798" height="2.661"/>
		</g>
		<g>
			<rect x="100.559" y="279.793" fill="#C5FCFF" width="20.798" height="2.662"/>
		</g>
		<g>
			<rect x="100.559" y="283.26" fill="#C5FCFF" width="20.798" height="2.66"/>
		</g>
		<g>
			<rect x="100.559" y="286.726" fill="#C5FCFF" width="20.798" height="2.663"/>
		</g>
		<g>
			<rect x="100.559" y="290.192" fill="#C5FCFF" width="20.798" height="2.663"/>
		</g>
		<g>
			<rect x="100.559" y="293.659" fill="#C5FCFF" width="20.798" height="2.66"/>
		</g>
		<g>
			<rect x="100.559" y="297.125" fill="#C5FCFF" width="20.798" height="2.662"/>
		</g>
		<g>
			<rect x="98.95" y="300.901" fill="#44C2CF" width="23.77" height="0.743"/>
		</g>
		<g>
			<rect x="97.588" y="262.71" fill="#44C2CF" width="26.493" height="1.64"/>
		</g>
		<g opacity="0.2">
			<g>
				<g>
					<g>
						<defs>
							<rect id="SVGID_3_" x="110.958" y="262.71" width="13.123" height="47.29"/>
						</defs>
						<clipPath id="SVGID_4_">
							<use xlink:href="#SVGID_3_"  overflow="visible"/>
						</clipPath>
						<g clip-path="url(#SVGID_4_)">
							<polygon fill="#4D5A85" points="110.958,262.77 110.958,310 122.719,310 122.719,264.35 124.081,264.35 124.081,262.708 
															"/>
						</g>
					</g>
				</g>
			</g>
		</g>
		<g>
			<path fill="#54C3CF" d="M158.278,234.195c0,0.682-0.553,1.233-1.233,1.233h-12.754c-0.681,0-1.232-0.552-1.232-1.233v-9.132
				c0-0.681,0.55-1.232,1.232-1.232h12.754c0.681,0,1.233,0.552,1.233,1.232V234.195z"/>
		</g>
		<g>
			<polygon fill="#82E4F4" points="164.131,309.878 137.205,309.878 137.205,228.229 146.149,228.229 146.149,227.208 
				155.186,227.208 155.186,228.229 164.131,228.229 			"/>
		</g>
		<g>
			<rect x="137.205" y="300.468" fill="#54C3CF" width="26.926" height="9.532"/>
		</g>
		<g>
			<rect x="146.149" y="230.211" fill="#FFFFFF" width="9.036" height="0.37"/>
		</g>
		<g>
			<rect x="146.149" y="233.677" fill="#FFFFFF" width="9.036" height="0.37"/>
		</g>
		<g>
			<rect x="146.149" y="237.144" fill="#FFFFFF" width="9.036" height="0.371"/>
		</g>
		<g>
			<rect x="146.149" y="240.609" fill="#FFFFFF" width="9.036" height="0.37"/>
		</g>
		<g>
			<rect x="146.149" y="244.076" fill="#FFFFFF" width="9.036" height="0.37"/>
		</g>
		<g>
			<rect x="146.149" y="247.543" fill="#FFFFFF" width="9.036" height="0.37"/>
		</g>
		<g>
			<rect x="146.149" y="251.01" fill="#FFFFFF" width="9.036" height="0.371"/>
		</g>
		<g>
			<rect x="146.149" y="254.475" fill="#FFFFFF" width="9.036" height="0.37"/>
		</g>
		<g>
			<rect x="146.149" y="257.943" fill="#FFFFFF" width="9.036" height="0.37"/>
		</g>
		<g>
			<rect x="146.149" y="261.409" fill="#FFFFFF" width="9.036" height="0.37"/>
		</g>
		<g>
			<rect x="146.149" y="264.875" fill="#FFFFFF" width="9.036" height="0.37"/>
		</g>
		<g>
			<rect x="146.149" y="268.342" fill="#FFFFFF" width="9.036" height="0.369"/>
		</g>
		<g>
			<rect x="146.149" y="271.81" fill="#FFFFFF" width="9.036" height="0.371"/>
		</g>
		<g>
			<rect x="146.149" y="275.274" fill="#FFFFFF" width="9.036" height="0.37"/>
		</g>
		<g>
			<rect x="146.149" y="278.74" fill="#FFFFFF" width="9.036" height="0.37"/>
		</g>
		<g>
			<rect x="146.149" y="282.207" fill="#FFFFFF" width="9.036" height="0.37"/>
		</g>
		<g>
			<rect x="146.149" y="285.675" fill="#FFFFFF" width="9.036" height="0.37"/>
		</g>
		<g>
			<rect x="146.149" y="289.14" fill="#FFFFFF" width="9.036" height="0.37"/>
		</g>
		<g>
			<rect x="146.149" y="292.606" fill="#FFFFFF" width="9.036" height="0.371"/>
		</g>
		<g>
			<rect x="146.149" y="296.072" fill="#FFFFFF" width="9.036" height="0.37"/>
		</g>
		<g>
			<rect x="155.186" y="231.325" fill="#FFFFFF" width="9.039" height="0.369"/>
		</g>
		<g>
			<rect x="155.186" y="234.791" fill="#FFFFFF" width="9.039" height="0.37"/>
		</g>
		<g>
			<rect x="155.186" y="238.257" fill="#FFFFFF" width="9.039" height="0.369"/>
		</g>
		<g>
			<rect x="155.186" y="241.724" fill="#FFFFFF" width="9.039" height="0.37"/>
		</g>
		<g>
			<rect x="155.186" y="245.19" fill="#FFFFFF" width="9.039" height="0.37"/>
		</g>
		<g>
			<rect x="155.186" y="248.657" fill="#FFFFFF" width="9.039" height="0.37"/>
		</g>
		<g>
			<rect x="155.186" y="252.125" fill="#FFFFFF" width="9.039" height="0.37"/>
		</g>
		<g>
			<rect x="155.186" y="255.59" fill="#FFFFFF" width="9.039" height="0.37"/>
		</g>
		<g>
			<rect x="155.186" y="259.056" fill="#FFFFFF" width="9.039" height="0.371"/>
		</g>
		<g>
			<rect x="155.186" y="262.524" fill="#FFFFFF" width="9.039" height="0.37"/>
		</g>
		<g>
			<rect x="155.186" y="265.99" fill="#FFFFFF" width="9.039" height="0.37"/>
		</g>
		<g>
			<rect x="155.186" y="269.456" fill="#FFFFFF" width="9.039" height="0.37"/>
		</g>
		<g>
			<rect x="155.186" y="272.923" fill="#FFFFFF" width="9.039" height="0.369"/>
		</g>
		<g>
			<rect x="155.186" y="276.389" fill="#FFFFFF" width="9.039" height="0.37"/>
		</g>
		<g>
			<rect x="155.186" y="279.854" fill="#FFFFFF" width="9.039" height="0.37"/>
		</g>
		<g>
			<rect x="155.186" y="283.322" fill="#FFFFFF" width="9.039" height="0.369"/>
		</g>
		<g>
			<rect x="155.186" y="286.789" fill="#FFFFFF" width="9.039" height="0.37"/>
		</g>
		<g>
			<rect x="155.186" y="290.254" fill="#FFFFFF" width="9.039" height="0.37"/>
		</g>
		<g>
			<rect x="155.186" y="293.721" fill="#FFFFFF" width="9.039" height="0.371"/>
		</g>
		<g>
			<rect x="155.186" y="297.188" fill="#FFFFFF" width="9.039" height="0.369"/>
		</g>
		<g>
			<rect x="137.205" y="231.325" fill="#FFFFFF" width="8.928" height="0.369"/>
		</g>
		<g>
			<rect x="137.205" y="234.791" fill="#FFFFFF" width="8.928" height="0.37"/>
		</g>
		<g>
			<rect x="137.205" y="238.257" fill="#FFFFFF" width="8.928" height="0.369"/>
		</g>
		<g>
			<rect x="137.205" y="241.724" fill="#FFFFFF" width="8.928" height="0.37"/>
		</g>
		<g>
			<rect x="137.205" y="245.19" fill="#FFFFFF" width="8.928" height="0.37"/>
		</g>
		<g>
			<rect x="137.205" y="248.657" fill="#FFFFFF" width="8.928" height="0.37"/>
		</g>
		<g>
			<rect x="137.205" y="252.125" fill="#FFFFFF" width="8.928" height="0.37"/>
		</g>
		<g>
			<rect x="137.205" y="255.59" fill="#FFFFFF" width="8.928" height="0.37"/>
		</g>
		<g>
			<rect x="137.205" y="259.056" fill="#FFFFFF" width="8.928" height="0.371"/>
		</g>
		<g>
			<rect x="137.205" y="262.524" fill="#FFFFFF" width="8.928" height="0.37"/>
		</g>
		<g>
			<rect x="137.205" y="265.99" fill="#FFFFFF" width="8.928" height="0.37"/>
		</g>
		<g>
			<rect x="137.205" y="269.456" fill="#FFFFFF" width="8.928" height="0.37"/>
		</g>
		<g>
			<rect x="137.205" y="272.923" fill="#FFFFFF" width="8.928" height="0.369"/>
		</g>
		<g>
			<rect x="137.205" y="276.389" fill="#FFFFFF" width="8.928" height="0.37"/>
		</g>
		<g>
			<rect x="137.205" y="279.854" fill="#FFFFFF" width="8.928" height="0.37"/>
		</g>
		<g>
			<rect x="137.205" y="283.322" fill="#FFFFFF" width="8.928" height="0.369"/>
		</g>
		<g>
			<rect x="137.205" y="286.789" fill="#FFFFFF" width="8.928" height="0.37"/>
		</g>
		<g>
			<rect x="137.205" y="290.254" fill="#FFFFFF" width="8.928" height="0.37"/>
		</g>
		<g>
			<rect x="137.205" y="293.721" fill="#FFFFFF" width="8.928" height="0.371"/>
		</g>
		<g>
			<rect x="137.205" y="297.188" fill="#FFFFFF" width="8.928" height="0.369"/>
		</g>
		<g>
			<rect x="145.964" y="226.175" fill="#54C3CF" width="0.37" height="74.292"/>
		</g>
		<g>
			<rect x="155.001" y="226.186" fill="#54C3CF" width="0.37" height="74.281"/>
		</g>
	</g>
</g>
</svg>
