<?xml version="1.0" encoding="UTF-8"?>
<!DOCTYPE svg PUBLIC "-//W3C//DTD SVG 1.1//EN" "http://www.w3.org/Graphics/SVG/1.1/DTD/svg11.dtd">
<!-- Creator: CorelDRAW X7 -->
<svg xmlns="http://www.w3.org/2000/svg" xml:space="preserve" width="0.315717in" height="0.161327in" version="1.1" style="shape-rendering:geometricPrecision; text-rendering:geometricPrecision; image-rendering:optimizeQuality; fill-rule:evenodd; clip-rule:evenodd"
viewBox="0 0 70 36"
 xmlns:xlink="http://www.w3.org/1999/xlink">
 <defs>
  <style type="text/css">
   <![CDATA[
    .fil6 {fill:#16A085}
    .fil3 {fill:#44403E}
    .fil5 {fill:#4A5361}
    .fil2 {fill:#586273}
    .fil1 {fill:#FFC400}
    .fil0 {fill:#FFD900}
    .fil4 {fill:#FFFEFF}
    .fil8 {fill:url(#id0);fill-opacity:0.200000}
    .fil7 {fill:url(#id1);fill-opacity:0.200000}
   ]]>
  </style>
  <linearGradient id="id0" gradientUnits="userSpaceOnUse" x1="59.283" y1="5.919" x2="59.283" y2="14.7918">
   <stop offset="0" style="stop-opacity:1; stop-color:black"/>
   <stop offset="0.658824" style="stop-opacity:1; stop-color:#626262"/>
   <stop offset="0.670588" style="stop-opacity:1; stop-color:white"/>
   <stop offset="1" style="stop-opacity:1; stop-color:black"/>
  </linearGradient>
  <linearGradient id="id1" gradientUnits="userSpaceOnUse" x1="60.5178" y1="5.8277" x2="58.0483" y2="14.8832">
   <stop offset="0" style="stop-opacity:1; stop-color:black"/>
   <stop offset="0.0901961" style="stop-opacity:1; stop-color:#2B2B2B"/>
   <stop offset="0.231373" style="stop-opacity:1; stop-color:#626262"/>
   <stop offset="0.360784" style="stop-opacity:1; stop-color:#929292"/>
   <stop offset="0.501961" style="stop-opacity:1; stop-color:#B9B9B9"/>
   <stop offset="0.631373" style="stop-opacity:1; stop-color:#D8D8D8"/>
   <stop offset="0.760784" style="stop-opacity:1; stop-color:#EEEEEE"/>
   <stop offset="0.890196" style="stop-opacity:1; stop-color:#FBFBFB"/>
   <stop offset="1" style="stop-opacity:1; stop-color:white"/>
  </linearGradient>
 </defs>
 <g id="Layer_x0020_1">
  <metadata id="CorelCorpID_0Corel-Layer"/>
  <g id="_1105205618208">
   <path class="fil0" d="M59 3l-9 0c-2,0 -4,2 -4,4l0 21 23 0 0 -11c0,-3 -1,-6 -3,-8 -1,-1 -2,-2 -2,-3 -2,-2 -3,-3 -5,-3z"/>
   <path class="fil1" d="M57 21l-54 0 0 6 61 0 0 0c0,-3 -4,-6 -7,-6z"/>
   <path class="fil2" d="M67 30l-63 0c-1,0 -1,-1 -1,-2l0 -1 66 0 0 1c0,1 -1,2 -2,2z"/>
   <g>
    <g>
     <circle class="fil3" cx="13" cy="29" r="7"/>
    </g>
    <g>
     <circle class="fil4" cx="13" cy="29" r="3"/>
    </g>
   </g>
   <g>
    <g>
     <circle class="fil3" cx="29" cy="29" r="7"/>
    </g>
    <g>
     <circle class="fil4" cx="29" cy="29" r="3"/>
    </g>
   </g>
   <g>
    <g>
     <circle class="fil3" cx="57" cy="29" r="7"/>
    </g>
    <g>
     <circle class="fil4" cx="57" cy="29" r="3"/>
    </g>
   </g>
   <path class="fil5" d="M47 25l-9 0c0,0 -1,1 -1,1l0 4c0,0 1,1 1,1l9 0c1,0 2,-1 2,-1l0 -4c0,0 -1,-1 -2,-1z"/>
   <path class="fil2" d="M44 1l0 20 -42 0c-1,0 -1,0 -1,-1l0 -19c0,0 0,-1 1,-1l41 0c0,0 1,1 1,1z"/>
   <path class="fil0" d="M44 1c0,0 -1,-1 -1,-1l-41 0c-1,0 -1,1 -1,1l0 1 3 0c0,0 0,0 0,0l0 15c0,0 1,0 1,0l0 0c0,0 0,0 0,0l0 -15c0,0 0,0 1,0l3 0c0,0 0,0 0,0l0 15c0,0 1,0 1,0l0 0c0,0 0,0 0,0l0 -15c0,0 1,0 1,0l3 0c0,0 1,0 1,0l0 15c0,0 0,0 0,0l0 0c0,0 1,0 1,0l0 -15c0,0 0,0 0,0l3 0c1,0 1,0 1,0l0 15c0,0 0,0 0,0l0 0c1,0 1,0 1,0l0 -15c0,0 0,0 0,0l4 0c0,0 0,0 0,0l0 15c0,0 0,0 0,0l0 0c1,0 1,0 1,0l0 -15c0,0 0,0 0,0l4 0c0,0 0,0 0,0l0 15c0,0 0,0 1,0l0 0c0,0 0,0 0,0l0 -15c0,0 0,0 1,0l3 0c0,0 0,0 0,0l0 15c0,0 1,0 1,0l0 0c0,0 0,0 0,0l0 -15c0,0 0,0 1,0l3 0c0,0 0,0 0,0l0 15c0,0 1,0 1,0l0 0c0,0 0,0 0,0l0 -15c0,0 1,0 1,0l2 0 0 -1 0 0z"/>
   <path class="fil5" d="M4 30l-3 0c-1,0 -1,-1 -1,-1l0 -3c0,-1 0,-1 1,-1l3 0c1,0 1,0 1,1l0 3c0,0 0,1 -1,1z"/>
   <path class="fil5" d="M69 30l-3 0c0,0 -1,-1 -1,-1l0 -3c0,-1 1,-1 1,-1l3 0c0,0 1,0 1,1l0 3c0,0 -1,1 -1,1z"/>
   <path class="fil1" d="M66 19l1 0c1,0 1,0 1,0l0 2c0,1 0,1 -1,1l0 0c-1,0 -3,-1 -3,-2l0 0c0,-1 1,-1 2,-1z"/>
   <path class="fil6" d="M63 9c0,0 -1,-2 -1,-2 -1,-1 -2,-1 -3,-1l-4 0c-1,0 -1,0 -1,1l0 7c0,0 0,1 1,1l9 0c0,0 1,-1 1,-1l0 0c0,-2 -1,-4 -2,-5z"/>
   <path class="fil7" d="M63 9c0,0 -1,-2 -1,-2 -1,-1 -2,-1 -3,-1l-4 0c-1,0 -1,0 -1,1l0 7c0,0 0,1 1,1l9 0c0,0 1,-1 1,-1l0 0c0,-2 -1,-4 -2,-5z"/>
   <path class="fil8" d="M63 9c0,0 -1,-2 -1,-2 -1,-1 -2,-1 -3,-1l-4 0c-1,0 -1,0 -1,1l0 7c0,0 0,1 1,1l9 0c0,0 1,-1 1,-1l0 0c0,-2 -1,-4 -2,-5z"/>
   <path class="fil3" d="M12 29c0,-1 1,-1 1,-1 1,0 2,0 2,1 0,1 -1,1 -2,1 0,0 -1,0 -1,-1z"/>
   <path class="fil3" d="M28 29c0,-1 0,-1 1,-1 1,0 1,0 1,1 0,1 0,1 -1,1 -1,0 -1,0 -1,-1z"/>
   <path class="fil3" d="M56 29c0,-1 0,-1 1,-1 1,0 1,0 1,1 0,1 0,1 -1,1 -1,0 -1,0 -1,-1z"/>
   <path class="fil5" d="M46 19l0 2 -44 0c-1,0 -1,0 -1,-1l0 -1 45 0z"/>
  </g>
 </g>
</svg>
