<?xml version="1.0" encoding="utf-8"?>
<!-- Generator: Adobe Illustrator 16.0.0, SVG Export Plug-In . SVG Version: 6.00 Build 0)  -->
<!DOCTYPE svg PUBLIC "-//W3C//DTD SVG 1.1//EN" "http://www.w3.org/Graphics/SVG/1.1/DTD/svg11.dtd">
<svg version="1.1" id="Layer_1" xmlns="http://www.w3.org/2000/svg" xmlns:xlink="http://www.w3.org/1999/xlink" x="0px" y="0px"
	 width="85px" height="35px" viewBox="0 0 85 35" enable-background="new 0 0 85 35" xml:space="preserve">
<g>
	<rect x="8.294" y="17.659" fill="#8FD5E0" width="69.344" height="9.803"/>
	<g>
		<path fill="#102249" d="M11.521,27.474c0,3.428,2.774,6.202,6.197,6.202c3.428,0,6.206-2.776,6.206-6.202
			c0-3.428-2.779-6.196-6.206-6.196C14.295,21.277,11.521,24.049,11.521,27.474z M13.3,27.474c0-2.425,1.986-4.412,4.418-4.412
			c2.438,0,4.415,1.987,4.415,4.412c0,2.438-1.979,4.415-4.415,4.415C15.286,31.89,13.3,29.911,13.3,27.474z"/>
		<path fill="#F2F2F2" d="M13.3,27.474c0,2.438,1.986,4.415,4.418,4.415c2.438,0,4.415-1.98,4.415-4.415
			c0-2.425-1.979-4.412-4.415-4.412C15.286,23.065,13.3,25.049,13.3,27.474z M15.089,27.474c0-1.448,1.184-2.629,2.63-2.629
			c1.451,0,2.632,1.181,2.632,2.629c0,1.451-1.181,2.632-2.632,2.632C16.272,30.107,15.089,28.925,15.089,27.474z"/>
		<path fill="#999999" d="M15.089,27.474c0,1.451,1.184,2.632,2.63,2.632c1.331,0,2.438-1,2.604-2.281
			c-0.343,0.169-0.721,0.261-1.126,0.261c-1.45,0-2.63-1.184-2.63-2.628c0-0.124,0.009-0.237,0.028-0.356
			C15.704,25.526,15.089,26.431,15.089,27.474z"/>
		<path fill="#CCCCCC" d="M16.566,25.461c0,1.442,1.18,2.626,2.63,2.626c0.405,0,0.783-0.094,1.126-0.261
			c0.022-0.115,0.027-0.232,0.027-0.353c0-1.448-1.181-2.629-2.632-2.629c-0.398,0-0.778,0.092-1.123,0.258
			C16.575,25.223,16.566,25.338,16.566,25.461z"/>
	</g>
	<g>
		<path fill="#102249" d="M61.655,27.474c0,3.428,2.777,6.202,6.204,6.202c3.424,0,6.202-2.776,6.202-6.202
			c0-3.428-2.778-6.196-6.202-6.196C64.433,21.277,61.655,24.049,61.655,27.474z M63.44,27.474c0-2.425,1.984-4.412,4.419-4.412
			c2.433,0,4.414,1.987,4.414,4.412c0,2.438-1.982,4.415-4.414,4.415C65.424,31.89,63.44,29.911,63.44,27.474z"/>
		<path fill="#F2F2F2" d="M63.44,27.474c0,2.438,1.984,4.415,4.419,4.415c2.433,0,4.414-1.98,4.414-4.415
			c0-2.425-1.982-4.412-4.414-4.412C65.424,23.065,63.44,25.049,63.44,27.474z M65.229,27.474c0-1.448,1.183-2.629,2.631-2.629
			c1.45,0,2.63,1.181,2.63,2.629c0,1.451-1.18,2.632-2.63,2.632C66.41,30.107,65.229,28.925,65.229,27.474z"/>
		<path fill="#999999" d="M65.229,27.474c0,1.451,1.183,2.632,2.631,2.632c1.333,0,2.433-1,2.603-2.281
			c-0.342,0.169-0.725,0.261-1.125,0.261c-1.45,0-2.633-1.184-2.633-2.628c0-0.124,0.011-0.237,0.028-0.356
			C65.841,25.526,65.229,26.431,65.229,27.474z"/>
		<path fill="#CCCCCC" d="M66.705,25.461c0,1.442,1.181,2.626,2.633,2.626c0.4,0,0.783-0.094,1.125-0.261
			c0.019-0.115,0.025-0.232,0.025-0.353c0-1.448-1.178-2.629-2.629-2.629c-0.401,0-0.785,0.092-1.126,0.258
			C66.714,25.223,66.705,25.338,66.705,25.461z"/>
	</g>
	<path fill="#FFFFFF" d="M79.697,24.328h-0.23c0.075,0.387,0.142,0.779,0.186,1.188c0.02,0.122,0.03,0.25,0.045,0.373
		c0.028,0.322,0.052,0.649,0.063,0.98c0.008,0.199,0.01,0.398,0.01,0.604c0,0,0.006-0.213,0.006-0.604
		C79.77,26.325,79.754,25.446,79.697,24.328z"/>
	<path fill="#29ABE2" d="M79.694,24.326h-3.548c-0.195,0-0.382,0.042-0.54,0.117c-0.153,0.084-0.169,0.078-0.221,0.126
		c-0.292,0.282-0.422,0.365-0.548,0.727l-0.398-1.469c-0.321-0.571-0.579-1.062-0.994-1.396c-0.295-0.247-0.666-0.414-1.188-0.488
		c-0.168-0.023-0.356-0.045-0.546-0.045h-8.148c-0.108,0-0.209,0.012-0.304,0.019c-0.081,0.008-0.169,0.013-0.252,0.023
		c-0.082,0.009-0.17,0.023-0.245,0.043c-0.067,0.018-0.126,0.031-0.181,0.051c-0.087,0.02-0.171,0.049-0.247,0.075
		c-0.812,0.306-0.979,0.913-1.443,1.747l-1.651,3.623H25.97l-1.214-3.655c-0.548-0.994-0.934-1.709-2.184-1.884
		c-0.17-0.023-0.353-0.046-0.557-0.046h-8.144c-0.103,0-0.203,0.014-0.296,0.02c-0.084,0.009-0.167,0.015-0.253,0.023
		c-0.083,0.01-0.168,0.024-0.243,0.043c-0.067,0.018-0.128,0.029-0.188,0.051c-1.017,0.273-1.177,0.903-1.686,1.822l-1.649,3.623
		H6.976c0,0-1.703,0-1.703-0.566c0-3.616,0.102-6.675,0.27-9.27c0.01-0.053,0.01-0.112,0.019-0.168
		c0.048-0.685,0.1-1.326,0.159-1.951c0.057-0.623,0.127-1.223,0.203-1.804c0-0.815,0.083-2.512,0.27-4.413
		c0.227-2.396,0.616-5.093,1.191-6.757c0.021-0.058,0.041-0.106,0.059-0.171c0.132-0.342,0.27-0.647,0.419-0.882h62.635
		c0.48,0.246,1.23,0.882,1.205,0.882l5.65,8.467c0.101,0.293,0.193,0.587,0.287,0.885c0.058,0.186,0.108,0.371,0.158,0.556
		c0.364,1.213,0.652,2.446,0.895,3.655c0.13,0.667,0.246,1.317,0.336,1.959c0.127,0.776,0.228,1.523,0.313,2.241
		C79.526,21.72,79.628,23.154,79.694,24.326z"/>
	<path fill="#FFFFFF" d="M61.201,3.732v5.415c0,0.436,0.352,0.788,0.788,0.788L73.992,9.94c0.621,0,1.354,0.048,1.063-0.59
		l-3.813-5.618c-0.337-0.479-0.35-0.781-0.787-0.781h-8.466C61.553,2.951,61.201,3.303,61.201,3.732z M61.791,4.214
		c0-0.356,0.311-0.639,0.695-0.639h7.641c0.382,0,0.373,0.166,0.665,0.553l3.219,4.63c0.256,0.511-0.385,0.473-0.938,0.473H62.486
		c-0.385,0-0.695-0.288-0.695-0.639V4.214z"/>
	<path fill="#E6E6E6" d="M5.714,11.291c0,0.246,0.198,0.438,0.437,0.438h2.575c1.576,0,62.362,0,62.362,0h6.585
		c0.24,0,0.436-0.195,0.436-0.438c0-0.244-0.194-0.44-0.436-0.44H6.15C5.912,10.848,5.714,11.046,5.714,11.291z"/>
	<path fill="#E6E6E6" d="M72.073,1.773c0,0.173-0.093,0.321-0.221,0.394c-0.007,0-0.007,0.009-0.007,0.009
		c-0.026,0.009-0.052,0.018-0.085,0.023c-0.015,0.013-0.034,0.013-0.059,0.013H7.442C7.236,2.2,7.069,2.006,7.069,1.775
		c0-0.244,0.177-0.451,0.39-0.451h64.218C71.896,1.322,72.073,1.528,72.073,1.773z"/>
	<path fill="#FFFFFF" d="M49.573,3.773v5.427c0,0.431,0.35,0.784,0.788,0.784h7.973c0.437,0,0.788-0.357,0.788-0.784V3.773
		c0-0.428-0.352-0.787-0.788-0.787h-7.973C49.923,2.986,49.573,3.346,49.573,3.773z M50.194,4.009c0-0.212,0.182-0.392,0.396-0.392
		h7.512c0.22,0,0.396,0.175,0.396,0.392v4.956c0,0.219-0.176,0.393-0.396,0.393h-7.512c-0.215,0-0.396-0.17-0.396-0.393V4.009z"/>
	<path opacity="0.74" fill="#3F6271" enable-background="new    " d="M50.194,4.009v4.956c0,0.219,0.182,0.393,0.396,0.393h7.512
		c0.22,0,0.396-0.17,0.396-0.393V4.009c0-0.212-0.176-0.392-0.396-0.392h-7.512C50.376,3.617,50.194,3.794,50.194,4.009z"/>
	<path fill="#FFFFFF" d="M38.483,3.773v5.427c0,0.431,0.349,0.784,0.782,0.784h7.975c0.435,0,0.786-0.357,0.786-0.784V3.773
		c0-0.428-0.353-0.787-0.786-0.787h-7.975C38.832,2.986,38.483,3.346,38.483,3.773z M39.103,4.009c0-0.212,0.177-0.392,0.394-0.392
		h7.519c0.213,0,0.393,0.175,0.393,0.392v4.956c0,0.219-0.177,0.393-0.393,0.393h-7.519c-0.215,0-0.394-0.17-0.394-0.393V4.009z"/>
	<path opacity="0.74" fill="#3F6271" enable-background="new    " d="M39.103,4.009v4.956c0,0.219,0.177,0.393,0.394,0.393h7.519
		c0.213,0,0.393-0.17,0.393-0.393V4.009c0-0.212-0.177-0.392-0.393-0.392h-7.519C39.28,3.617,39.103,3.794,39.103,4.009z"/>
	<path fill="#FFFFFF" d="M27.388,3.773v5.427c0,0.431,0.352,0.784,0.786,0.784h7.974c0.439,0,0.787-0.357,0.787-0.784V3.773
		c0-0.428-0.348-0.787-0.787-0.787h-7.974C27.737,2.986,27.388,3.346,27.388,3.773z M28.011,4.009c0-0.212,0.176-0.392,0.391-0.392
		h7.515c0.221,0,0.397,0.175,0.397,0.392v4.956c0,0.219-0.176,0.393-0.397,0.393h-7.515c-0.214,0-0.391-0.17-0.391-0.393V4.009z"/>
	<path opacity="0.74" fill="#3F6271" enable-background="new    " d="M28.011,4.009v4.956c0,0.219,0.176,0.393,0.391,0.393h7.515
		c0.221,0,0.397-0.17,0.397-0.393V4.009c0-0.212-0.176-0.392-0.397-0.392h-7.515C28.187,3.617,28.011,3.794,28.011,4.009z"/>
	<path fill="#FFFFFF" d="M14.017,3.773v5.427c0,0.431,0.433,0.784,0.976,0.784h9.874c0.543,0,0.975-0.357,0.975-0.784V3.773
		c0-0.428-0.435-0.787-0.975-0.787h-9.874C14.448,2.986,14.017,3.346,14.017,3.773z M14.783,4.009c0-0.212,0.223-0.392,0.491-0.392
		h9.308c0.27,0,0.489,0.175,0.489,0.392v4.956c0,0.219-0.22,0.393-0.489,0.393h-9.308c-0.269,0-0.491-0.17-0.491-0.393V4.009z"/>
	<path opacity="0.74" fill="#3F6271" enable-background="new    " d="M14.783,4.009v4.956c0,0.219,0.223,0.393,0.491,0.393h9.308
		c0.27,0,0.489-0.17,0.489-0.393V4.009c0-0.212-0.22-0.392-0.489-0.392h-9.308C15.006,3.617,14.783,3.794,14.783,4.009z"/>
	<path opacity="0.74" fill="#3F6271" enable-background="new    " d="M61.791,4.214V8.59c0,0.35,0.311,0.638,0.695,0.638h10.588
		c0.553,0,1.193,0.039,0.938-0.473l-3.218-4.63c-0.293-0.389-0.284-0.552-0.666-0.552h-7.641
		C62.102,3.575,61.791,3.861,61.791,4.214z"/>
	<path fill="#BE894A" d="M14.487,11.73c0.627,0.031,1.5,0,2.712,0H14.487z"/>
	<path fill="#92D2DF" d="M75.6,24.448c1.418,0.46,2.782,0.939,4.098,1.441c-0.015-0.123-0.025-0.251-0.045-0.373
		c-0.044-0.405-0.11-0.802-0.186-1.188h-3.326C75.951,24.328,75.77,24.37,75.6,24.448z"/>
	<path fill="#B3B3B3" d="M74.728,25.901c0,0.575,0.278,1.084,0.697,1.353c0.075,0.048,0.147,0.093,0.229,0.123
		c0.15,0.068,0.316,0.097,0.488,0.097h3.897c0.529,0,0.99-0.322,1.233-0.804c-0.204,0.133-0.439,0.2-0.693,0.2h-3.889
		c-0.779,0-1.415-0.706-1.415-1.574c0-0.275,0.063-0.545,0.179-0.769c-0.164,0.101-0.305,0.235-0.427,0.399
		c-0.053,0.074-0.103,0.164-0.138,0.248C74.784,25.396,74.728,25.64,74.728,25.901z"/>
	<path fill="#F2F2F2" d="M75.276,25.296c0,0.868,0.634,1.574,1.413,1.574h3.891c0.251,0,0.489-0.067,0.693-0.2
		c0.11-0.23,0.184-0.486,0.184-0.772c0-0.432-0.162-0.825-0.414-1.109c-0.259-0.284-0.614-0.463-1.003-0.463h-3.899
		c-0.189,0-0.371,0.043-0.541,0.121c-0.05,0.019-0.095,0.048-0.145,0.079C75.34,24.751,75.276,25.021,75.276,25.296z"/>
	<path fill="#B3B3B3" d="M3.543,25.89c0,0.865,0.62,1.572,1.387,1.572h3.817c0.528,0,0.989-0.341,1.229-0.835
		c-0.153,0.067-0.322,0.106-0.501,0.106H5.657c-0.768,0-1.392-0.7-1.392-1.572c0-0.267,0.059-0.524,0.168-0.742
		C3.911,24.651,3.543,25.218,3.543,25.89z"/>
	<path fill="#F2F2F2" d="M4.266,25.161c0,0.874,0.625,1.572,1.392,1.572h3.817c0.178,0,0.348-0.039,0.5-0.106
		c0.103-0.219,0.163-0.475,0.163-0.738c0-0.435-0.153-0.833-0.403-1.118c-0.254-0.284-0.601-0.462-0.986-0.462H4.931
		c-0.176,0-0.344,0.044-0.497,0.109C4.324,24.637,4.266,24.895,4.266,25.161z"/>
	<path fill="#F68821" d="M5.085,13.716v3.758h0.476c0.044-0.684,0.096-1.329,0.151-1.95c0.063-0.623,0.133-1.228,0.209-1.808H5.085
		L5.085,13.716z"/>
	<path opacity="0.74" fill="#3F6271" enable-background="new    " d="M62.393,13.32c0,0.3,0.24,0.538,0.538,0.538h2.82
		c0.3,0,0.542-0.238,0.542-0.538l0,0c0-0.3-0.242-0.541-0.542-0.541h-2.82C62.632,12.779,62.393,13.02,62.393,13.32L62.393,13.32z"
		/>
	<path fill="#CAE6E6" d="M78.939,15.405c0,0.805-0.036,1.497-0.304,1.855c-0.123,0.163-0.288,0.252-0.524,0.252
		c-1.814,0-3.278-0.942-3.278-2.107c0-1.152,1.464-2.1,3.278-2.1c0.218,0,0.379,0.092,0.497,0.25
		C78.871,13.914,78.939,14.612,78.939,15.405z"/>
	<path fill="#FFFFFF" d="M79.602,15.405c0,1.02-0.428,1.847-0.968,1.855c0.27-0.359,0.304-1.05,0.304-1.855
		c0-0.793-0.067-1.491-0.33-1.848c0.007,0,0.007,0,0.019,0C79.162,13.558,79.602,14.385,79.602,15.405z"/>
</g>
</svg>
