<?xml version="1.0" encoding="utf-8"?>
<!-- Generator: Adobe Illustrator 19.0.0, SVG Export Plug-In . SVG Version: 6.00 Build 0)  -->
<svg version="1.1" id="Layer_1" xmlns="http://www.w3.org/2000/svg" xmlns:xlink="http://www.w3.org/1999/xlink" x="0px" y="0px"
	 viewBox="-32 44.4 22.7 11.6" style="enable-background:new -32 44.4 22.7 11.6;" xml:space="preserve">
<style type="text/css">
	.st0{fill:#1EB2E8;}
	.st1{fill:#83878E;}
	.st2{opacity:0.38;fill:#3A3939;}
	.st3{fill:#F04925;}
	.st4{fill:#5B606B;}
	.st5{fill:#231F20;}
	.st6{fill:#FFFFFF;}
	.st7{fill:#232736;}
	.st8{fill:#323948;}
	.st9{fill:#F7B029;}
</style>
<g>
	<g>
		<rect x="-31.4" y="44.7" class="st0" width="12.4" height="5.6"/>
		<rect x="-31.4" y="50.3" class="st1" width="12.4" height="3.5"/>
		<rect x="-19.3" y="44.7" class="st2" width="0.3" height="9.1"/>
		<path class="st3" d="M-21.9,50.9"/>
		<path class="st4" d="M-13.3,45c0-0.2-0.1-0.3-0.3-0.3H-19v1h5.7L-13.3,45z"/>
		<path class="st1" d="M-10,51.1v2c0,0.4-0.3,0.7-0.7,0.7H-19v-8.1h5.7v0l0.8,3.5l2.1,1.1c0.1,0,0.1,0.1,0.2,0.1
			C-10.1,50.6-10,50.9-10,51.1z"/>
		<polygon class="st5" points="-13.3,49.1 -13.8,46.2 -15.8,46.2 -15.8,49.1 		"/>
		<polygon class="st6" points="-21.2,47.5 -24.1,45.8 -24.1,46.8 -29.3,46.8 -29.3,48.3 -24.1,48.3 -24.1,49.2 		"/>
		<rect x="-18.5" y="46.2" class="st5" width="2" height="2.9"/>
		<line class="st3" x1="-16.6" y1="46.6" x2="-16.6" y2="49"/>
		<line class="st3" x1="-17.4" y1="50.3" x2="-16.5" y2="50.3"/>
		<g>
			<path class="st7" d="M-24.5,53.8h-5.1c0-1.4,1.2-2.5,2.5-2.5C-25.6,51.3-24.5,52.4-24.5,53.8z"/>
			<path class="st7" d="M-12.5,53.8h-5.1c0-1.4,1.2-2.5,2.5-2.5C-13.6,51.3-12.5,52.4-12.5,53.8z"/>
		</g>
		<g>
			<circle class="st8" cx="-27" cy="53.9" r="2"/>
			<circle class="st6" cx="-27" cy="53.9" r="1.2"/>
			<circle class="st8" cx="-27" cy="53.9" r="0.8"/>
		</g>
		<g>
			<circle class="st8" cx="-15" cy="53.9" r="2"/>
			<circle class="st6" cx="-15" cy="53.9" r="1.2"/>
			<circle class="st8" cx="-15" cy="53.9" r="0.8"/>
		</g>
		<path class="st9" d="M-10,51.1v1.6c0,0,0,0,0,0c-1.2,0-1.1-0.5-1.1-1.1c0-0.5,0.3-1,0.8-1.1C-10.1,50.6-10,50.9-10,51.1z"/>
	</g>
	<rect x="-15.4" y="49.6" class="st7" width="1.3" height="0.4"/>
</g>
</svg>
