<?xml version="1.0" encoding="utf-8"?>
<!-- Generator: Adobe Illustrator 19.0.0, SVG Export Plug-In . SVG Version: 6.00 Build 0)  -->
<svg version="1.1" id="Layer_1" xmlns="http://www.w3.org/2000/svg" xmlns:xlink="http://www.w3.org/1999/xlink" x="0px" y="0px"
	 viewBox="4 14 96 71" style="enable-background:new 4 14 96 71;" xml:space="preserve">
<style type="text/css">
	.st0{fill:#23262A;}
	.st1{fill:#E19004;}
	.st2{fill:#FFBF00;}
	.st3{fill:#FFE280;}
	.st4{fill:#454C53;}
	.st5{fill:#FFFFFF;}
	.st6{fill:#B0ADA7;}
</style>
<g>
	<g>
		<ellipse class="st0" cx="41.8" cy="77.7" rx="7.3" ry="7.8"/>
		<ellipse class="st0" cx="79.6" cy="77.7" rx="7.3" ry="7.8"/>
		<path class="st1" d="M87,78.1c0,1-0.8,1.9-1.9,1.9H22.9c-1,0-1.9-0.8-1.9-1.9V35.9c0-1,0.8-1.9,1.9-1.9h62.2c1,0,1.9,0.8,1.9,1.9
			V78.1z"/>
		<path class="st1" d="M33.6,79.2V59.9c0-1,0.8-1.9,1.9-1.9h62.6c1,0,1.9,0.8,1.9,1.9v19.3H33.6z"/>
		<path class="st2" d="M18.4,79.2V59.9c0-1,0.8-1.9,1.9-1.9h62.6c1,0,1.9,0.8,1.9,1.9v19.3H18.4z"/>
		<path class="st2" d="M72,78.1c0,1-0.8,1.9-1.9,1.9H7.9c-1,0-1.9-0.8-1.9-1.9V35.9c0-1,0.8-1.9,1.9-1.9h62.2c1,0,1.9,0.8,1.9,1.9
			V78.1z"/>
		<path class="st3" d="M48.7,78.1c0-0.3-0.1-0.7-0.1-1.1c0-6.1,4.9-11,11-11c6.1,0,11,4.9,11,11c0,0.4,0,0.7-0.1,1.1H48.7z"/>
		<path class="st3" d="M11.7,78.1c0-0.3-0.1-0.7-0.1-1.1c0-6.1,4.9-11,11-11c6.1,0,11,4.9,11,11c0,0.4,0,0.7-0.1,1.1H11.7z"/>
		<g>
			
				<ellipse transform="matrix(1 5.694308e-003 -5.694308e-003 1 0.3785 -0.5482)" class="st4" cx="96.5" cy="66.2" rx="2.4" ry="3.7"/>
			
				<ellipse transform="matrix(1 5.644009e-003 -5.644009e-003 1 0.3751 -0.5434)" class="st5" cx="96.5" cy="66.2" rx="1.8" ry="2.7"/>
		</g>
		<g>
			
				<ellipse transform="matrix(1 5.694308e-003 -5.694308e-003 1 0.3782 -0.4625)" class="st4" cx="81.4" cy="66.2" rx="2.4" ry="3.7"/>
			
				<ellipse transform="matrix(1 5.644009e-003 -5.644009e-003 1 0.3749 -0.4584)" class="st5" cx="81.4" cy="66.2" rx="1.8" ry="2.7"/>
		</g>
		<rect x="29.3" y="77.3" class="st5" width="24.5" height="2.4"/>
		<rect x="51.7" y="77.3" class="st5" width="24.5" height="2.4"/>
		<path class="st5" d="M100,74.9c0-0.5-0.4-0.9-0.9-0.9H68.9c-0.5,0-0.9,0.4-0.9,0.9v5.1c0,0.5,0.4,0.9,0.9,0.9h30.1
			c0.5,0,0.9-0.4,0.9-0.9V74.9z"/>
		<path class="st5" d="M6.8,73.5h16.3v6.1H6.8c-0.5,0-0.9-0.4-0.9-0.9v-4.2C5.9,73.9,6.3,73.5,6.8,73.5z"/>
		<g>
			<path class="st4" d="M73,61.5c0-0.3-0.2-0.5-0.5-0.5H4.5C4.2,61,4,61.2,4,61.5v0.1C4,61.8,4.2,62,4.5,62h68.1
				C72.8,62,73,61.8,73,61.5L73,61.5z"/>
			<path class="st4" d="M73,65.5c0-0.3-0.2-0.5-0.5-0.5H4.5C4.2,65,4,65.2,4,65.5v0.1C4,65.8,4.2,66,4.5,66h68.1
				C72.8,66,73,65.8,73,65.5L73,65.5z"/>
		</g>
		<g>
			<path class="st4" d="M92,63.5c0-0.3-0.2-0.5-0.5-0.5h-6.1c-0.3,0-0.5,0.2-0.5,0.5v0.1c0,0.3,0.2,0.5,0.5,0.5h6.1
				C91.8,64,92,63.8,92,63.5L92,63.5z"/>
			<path class="st4" d="M92,65.5c0-0.3-0.2-0.5-0.5-0.5h-6.1c-0.3,0-0.5,0.2-0.5,0.5v0.1c0,0.3,0.2,0.5,0.5,0.5h6.1
				C91.8,66,92,65.8,92,65.5L92,65.5z"/>
			<path class="st4" d="M92,67.5c0-0.3-0.2-0.5-0.5-0.5h-6.1c-0.3,0-0.5,0.2-0.5,0.5v0.1c0,0.3,0.2,0.5,0.5,0.5h6.1
				C91.8,68,92,67.8,92,67.5L92,67.5z"/>
			<path class="st4" d="M92,68.5c0-0.3-0.2-0.5-0.5-0.5h-6.1c-0.3,0-0.5,0.2-0.5,0.5v0.1c0,0.3,0.2,0.5,0.5,0.5h6.1
				C91.8,69,92,68.8,92,68.5L92,68.5z"/>
		</g>
		<g>
			<ellipse class="st0" cx="22.7" cy="77" rx="8" ry="8.4"/>
			<ellipse class="st5" cx="22.7" cy="77" rx="4.8" ry="5"/>
			<ellipse class="st6" cx="22.7" cy="77" rx="2.9" ry="3"/>
		</g>
		<g>
			<ellipse class="st0" cx="59.5" cy="77" rx="8" ry="8.4"/>
			<ellipse class="st5" cx="59.5" cy="77" rx="4.8" ry="5"/>
			<ellipse class="st6" cx="59.5" cy="77" rx="2.9" ry="3"/>
		</g>
		<path class="st4" d="M72,44.9c0-1-0.8-1.9-1.9-1.9h-9.2c-1,0-1.9,0.8-1.9,1.9v12.2c0,1,0.8,1.9,1.9,1.9h9.2c1,0,1.9-0.8,1.9-1.9
			V44.9z"/>
		<path class="st4" d="M87,44.9c0-1-0.8-1.9-1.9-1.9h-9.2c-1,0-1.9,0.8-1.9,1.9v12.2c0,1,0.8,1.9,1.9,1.9h9.2c1,0,1.9-0.8,1.9-1.9
			V44.9z"/>
		<path class="st4" d="M52,44.9c0-1-0.8-1.9-1.9-1.9h-9.2c-1,0-1.9,0.8-1.9,1.9v12.2c0,1,0.8,1.9,1.9,1.9h9.2c1,0,1.9-0.8,1.9-1.9
			V44.9z"/>
		<path class="st4" d="M36,44.9c0-1-0.8-1.9-1.9-1.9h-9.2c-1,0-1.9,0.8-1.9,1.9v12.2c0,1,0.8,1.9,1.9,1.9h9.2c1,0,1.9-0.8,1.9-1.9
			V44.9z"/>
		<path class="st4" d="M23,44.9c0-1-0.8-1.9-1.9-1.9h-9.2c-1,0-1.9,0.8-1.9,1.9v12.2c0,1,0.8,1.9,1.9,1.9h9.2c1,0,1.9-0.8,1.9-1.9
			V44.9z"/>
		<path class="st3" d="M73,35.9c0-1-0.8-1.9-1.9-1.9H7.9c-1,0-1.9,0.8-1.9,1.9v2.2c0,1,0.8,1.9,1.9,1.9h63.2c1,0,1.9-0.8,1.9-1.9
			V35.9z"/>
		<path class="st5" d="M90,34.9c0-0.5-0.4-0.9-0.9-0.9H73.9c-0.5,0-0.9,0.4-0.9,0.9v5.1c0,0.5,0.4,0.9,0.9,0.9h15.1
			c0.5,0,0.9-0.4,0.9-0.9V34.9z"/>
	</g>
</g>
</svg>
