<?xml version="1.0" encoding="utf-8"?>
<!-- Generator: Adobe Illustrator 19.0.0, SVG Export Plug-In . SVG Version: 6.00 Build 0)  -->
<svg version="1.1" id="Layer_1" xmlns="http://www.w3.org/2000/svg" xmlns:xlink="http://www.w3.org/1999/xlink" x="0px" y="0px"
	 viewBox="8 -37 275 101" style="enable-background:new 8 -37 275 101;" xml:space="preserve">
<style type="text/css">
	.st0{fill:#CFCFD5;}
	.st1{fill:#00FF91;}
	.st2{fill:#0071BC;}
	.st3{fill:#FFFFFF;}
	.st4{font-family:'MyriadPro-Regular';}
	.st5{font-size:21.5855px;}
	.st6{fill:#E6E6E6;}
	.st7{fill:#999999;}
	.st8{fill:url(#SVGID_1_);}
	.st9{fill:#F3F3F5;}
	.st10{fill:#2FA49A;}
	.st11{font-size:5.5702px;}
	.st12{fill:#E25422;}
	.st13{fill:#CE4419;}
	.st14{fill:#FFB600;}
	.st15{fill:#808285;}
	.st16{fill:#747577;}
	.st17{fill:#0268A0;}
	.st18{fill:#24CF5F;}
	.st19{fill:#D39305;}
	.st20{fill:none;}
	.st21{fill:#0E303F;}
	.st22{fill:#F1F2F2;}
	.st23{fill:#636363;}
	.st24{fill:#01C5C5;}
	.st25{fill:#B8DE70;}
	.st26{fill:#F29232;}
	.st27{fill:#F1F1F1;}
	.st28{fill:#64BFEA;}
	.st29{fill:#8FD5E0;}
	.st30{fill:#102249;}
	.st31{fill:#F2F2F2;}
	.st32{fill:#CCCCCC;}
	.st33{fill:#29ABE2;}
	.st34{fill:#3F6271;fill-opacity:0.7412;}
	.st35{fill:#BE894A;}
	.st36{fill:#92D2DF;}
	.st37{fill:#B3B3B3;}
	.st38{fill:#F68821;}
	.st39{fill:#CAE6E6;}
	.st40{fill:#461811;}
	.st41{fill:#EAC8AD;}
	.st42{fill:#F2D7BC;}
	.st43{fill:#EAC0A7;}
	.st44{fill:#71B6E7;}
	.st45{fill:#5EACDD;}
	.st46{fill:#FFFFFF;fill-opacity:0.502;}
</style>
<g id="Layer_x0020_1">
	<rect x="69.1" y="57.9" class="st0" width="154.3" height="5"/>
	<rect x="8" y="57.9" class="st0" width="48.5" height="5"/>
	<polygon class="st1" points="205.2,-14.3 83,-14.3 66.3,-5.9 221.9,-5.9 	"/>
	<path class="st2" d="M124.7-3.2c0,2.8,0,2.8-2.8,2.8l0,0c-2.8,0-5.6,0-5.6-2.8v-5.6c0,0,2.8,0,5.6,0l0,0c2.8,0,2.8,0,2.8,0V-3.2z"
		/>
	<path class="st2" d="M174.7-3.2l-2.8,2.8l0,0c-2.8,0-2.8-2.8-2.8-2.8v-5.6c0,0,0-2.8,2.8-2.8l0,0l2.8,2.8V-3.2z"/>
	<path class="st2" d="M194.1-17.1c0,5.6-5.6,8.3-11.1,8.3h-75c-5.6,0-13.9-2.8-13.9-8.3v-11.1c0-5.6,8.3-8.3,13.9-8.3h75
		c5.6,0,11.1,2.8,11.1,8.3V-17.1z"/>
	<text transform="matrix(1 0 0 1 103.1105 -14.2778)" class="st3 st4 st5">KURSUS</text>
	<rect x="71.9" y="-5.9" class="st6" width="149.4" height="67.4"/>
	<g id="_437321459184">
		<rect x="96.9" y="16.3" class="st7" width="3.4" height="44.9"/>
		<rect x="191.3" y="16.3" class="st7" width="3.4" height="44.9"/>
	</g>
	<rect x="144.1" y="16.3" class="st7" width="3.4" height="44.9"/>
	<g id="_437321458576">
		<polygon class="st0" points="221.9,21.8 69.1,21.8 66.3,19.1 221.9,19.1 		"/>
		
			<linearGradient id="SVGID_1_" gradientUnits="userSpaceOnUse" x1="34.481" y1="21.18" x2="90.57" y2="21.18" gradientTransform="matrix(2.7778 0 0 -2.7778 -28.4444 76.5)">
			<stop  offset="0" style="stop-color:#E6E6E9"/>
			<stop  offset="0.4902" style="stop-color:#E1E1E4"/>
			<stop  offset="1" style="stop-color:#DBDBDF"/>
		</linearGradient>
		<polygon class="st8" points="66.3,19.1 221.9,19.1 221.9,16.3 66.3,16.3 		"/>
		<polygon class="st9" points="221.9,16.3 66.3,16.3 69.1,13.5 221.9,13.5 		"/>
	</g>
	<polygon class="st0" points="221.9,-3.2 69.1,-3.2 66.3,-5.9 221.9,-5.9 	"/>
	<g id="_437321460368">
		<rect x="55.2" y="-0.4" class="st0" width="15.4" height="2.2"/>
		<rect x="55.2" y="-0.4" class="st0" width="2.2" height="4.7"/>
		<rect x="49.7" y="2.4" class="st10" width="13.6" height="8.9"/>
		<g>
			<text transform="matrix(1 0 0 1 52.4439 10.7229)" class="st3 st4 st11">IN</text>
		</g>
	</g>
	<g id="_437321462512">
		<rect x="219.1" y="-0.4" class="st0" width="15.4" height="2.2"/>
		<rect x="233" y="-0.4" class="st0" width="2.2" height="4.7"/>
		<rect x="227.4" y="2.4" class="st12" width="13.6" height="8.9"/>
		<g>
			<text transform="matrix(1 0 0 1 230.2212 7.944)" class="st3 st4 st11">OUT</text>
		</g>
	</g>
	<polygon class="st12" points="24.7,60.7 10.8,60.7 10.8,27.4 13.6,27.4 24.7,27.4 24.7,27.4 	"/>
	<rect x="10.8" y="46.8" class="st13" width="15.3" height="1.8"/>
	<rect x="10.8" y="30.2" class="st13" width="15.3" height="1.8"/>
	<rect x="16.3" y="52.4" class="st13" width="4.5" height="6.7"/>
	<g id="_437321465904">
		<rect x="13.6" y="35.7" class="st13" width="0.3" height="5.1"/>
		<rect x="16.3" y="35.7" class="st13" width="0.3" height="5.1"/>
		<rect x="16.3" y="35.7" class="st13" width="0.3" height="5.1"/>
		<rect x="19.1" y="35.7" class="st13" width="0.3" height="5.1"/>
		<rect x="19.1" y="35.7" class="st13" width="0.3" height="5.1"/>
		<rect x="21.9" y="35.7" class="st13" width="0.3" height="5.1"/>
		<rect x="21.9" y="35.7" class="st13" width="0.3" height="5.1"/>
		<rect x="21.9" y="35.7" class="st13" width="0.3" height="5.1"/>
	</g>
	<rect x="33" y="41.3" class="st2" width="11.7" height="18.3"/>
	<rect x="49.7" y="21.8" class="st7" width="1.7" height="37.1"/>
	<rect x="35.8" y="38.5" class="st14" width="3.6" height="5.1"/>
	<polygon class="st15" points="46.9,24.6 44.1,27.4 44.1,21.8 	"/>
	
		<rect x="46.3" y="22.6" transform="matrix(-0.9769 0.2136 -0.2136 -0.9769 103.2073 37.0087)" class="st16" width="6.6" height="3"/>
	<rect x="33" y="44.1" class="st17" width="7.6" height="5.9"/>
	<rect x="33" y="52.4" class="st17" width="7.6" height="5.9"/>
	<path class="st18" d="M38.6,52.4L38.6,52.4h-2.8c0-2.8,2.8-2.8,2.8-2.8S38.6,49.6,38.6,52.4z"/>
	<g id="_437321470384">
		<polygon class="st1" points="258,60.7 238.6,60.7 238.6,19.1 238.6,16.3 258,16.3 258,19.1 		"/>
		<rect x="241.3" y="21.8" class="st3" width="16.2" height="13.2"/>
		<g>
			<rect x="244.1" y="46.8" class="st19" width="0.3" height="5.1"/>
			<rect x="244.1" y="46.8" class="st19" width="0.3" height="5.1"/>
			<rect x="246.9" y="46.8" class="st19" width="0.3" height="5.1"/>
			<rect x="246.9" y="46.8" class="st19" width="0.3" height="5.1"/>
			<rect x="249.7" y="46.8" class="st19" width="0.3" height="5.1"/>
			<rect x="249.7" y="46.8" class="st19" width="0.3" height="5.1"/>
			<rect x="252.4" y="46.8" class="st19" width="0.3" height="5.1"/>
			<rect x="252.4" y="46.8" class="st19" width="0.3" height="5.1"/>
		</g>
		<rect x="263.6" y="41.3" class="st2" width="11.7" height="18.3"/>
		<rect x="277.4" y="21.8" class="st7" width="1.7" height="37.1"/>
		<rect x="266.3" y="38.5" class="st14" width="3.6" height="5.1"/>
		<polygon class="st15" points="274.7,24.6 271.9,27.4 269.1,21.8 271.9,24.6 		"/>
		
			<rect x="272.4" y="22.6" transform="matrix(-0.9769 0.2135 -0.2135 -0.9769 550.2523 -11.2275)" class="st16" width="6.6" height="3"/>
		<rect x="266.3" y="44.1" class="st17" width="7.6" height="5.9"/>
		<rect x="266.3" y="52.4" class="st17" width="7.6" height="5.9"/>
		<g>
			<g>
				<rect x="241.3" y="21.8" class="st20" width="16.2" height="13.2"/>
			</g>
			<g>
				<g>
					<g>
						<path class="st21" d="M244.1,35.7L244.1,35.7h2.8l0,0H244.1z"/>
						<path class="st22" d="M246.9,35.7h-2.8l0,0l0,0H246.9L246.9,35.7L246.9,35.7z"/>
						<path class="st22" d="M241.3,32.9v2.8l0,0h8.3l0,0v-2.8H241.3z"/>
						<path class="st21" d="M249.7,32.9v-5.6l0,0h-8.3l0,0v5.6H249.7z"/>
						<rect x="241.3" y="27.4" class="st3" width="8.3" height="5"/>
					</g>
					<rect x="241.3" y="27.4" class="st23" width="8.3" height="1"/>
					<g>
						<ellipse class="st24" cx="241.3" cy="30.2" rx="0" ry="0"/>
						<ellipse class="st25" cx="241.3" cy="30.2" rx="0" ry="0"/>
						<ellipse class="st26" cx="241.3" cy="30.2" rx="0" ry="0"/>
					</g>
					<rect x="244.1" y="30.2" class="st3" width="6.2" height="0.3"/>
					<g>
						<rect x="241.3" y="30.2" class="st23" width="0.5" height="0.2"/>
						<rect x="241.3" y="30.2" class="st23" width="1" height="0.2"/>
					</g>
					<g>
						<rect x="241.3" y="30.2" class="st23" width="0.2" height="0.2"/>
						<rect x="241.3" y="30.2" class="st23" width="1.3" height="0.2"/>
					</g>
					<g>
						<rect x="244.1" y="32.9" class="st23" width="2.4" height="0.2"/>
					</g>
					<g>
						<rect x="244.1" y="32.9" class="st23" width="4.9" height="0.2"/>
					</g>
					<g>
						<rect x="244.1" y="32.9" class="st23" width="4.9" height="0.2"/>
					</g>
					<g>
						<rect x="241.3" y="30.2" class="st27" width="0.6" height="0.5"/>
					</g>
					<g>
						<path class="st25" d="M241.3,30.2L241.3,30.2L241.3,30.2L241.3,30.2L241.3,30.2L241.3,30.2L241.3,30.2c2.8,0,2.8,0,2.8,0l0,0
							H241.3L241.3,30.2L241.3,30.2z"/>
					</g>
					<g>
						<g>
							<g>
								<rect x="244.1" y="30.2" class="st28" width="2.4" height="0.5"/>
							</g>
							<g>
								<rect x="246.9" y="30.2" class="st28" width="1.9" height="0.2"/>
							</g>
							<g>
								<rect x="246.9" y="30.2" class="st28" width="1.9" height="0.2"/>
							</g>
							<g>
								<rect x="244.1" y="30.2" class="st28" width="0.6" height="0.5"/>
							</g>
							<g>
								<rect x="244.1" y="30.2" class="st28" width="0.6" height="0.5"/>
							</g>
							<g>
								<rect x="246.9" y="30.2" class="st28" width="0.6" height="0.5"/>
							</g>
							<g>
								<rect x="244.1" y="30.2" class="st28" width="2.4" height="0.5"/>
							</g>
						</g>
					</g>
					<g>
						<rect x="246.9" y="32.9" class="st29" width="1.8" height="0.2"/>
						<g>
							<path class="st30" d="M246.9,32.9L246.9,32.9L246.9,32.9L246.9,32.9L246.9,32.9z M246.9,32.9L246.9,32.9L246.9,32.9
								L246.9,32.9L246.9,32.9z"/>
							<path class="st31" d="M246.9,32.9L246.9,32.9L246.9,32.9L246.9,32.9L246.9,32.9z M246.9,32.9L246.9,32.9L246.9,32.9
								L246.9,32.9L246.9,32.9z"/>
							<path class="st7" d="M246.9,32.9L246.9,32.9L246.9,32.9L246.9,32.9L246.9,32.9L246.9,32.9L246.9,32.9z"/>
							<path class="st32" d="M246.9,32.9L246.9,32.9L246.9,32.9L246.9,32.9L246.9,32.9L246.9,32.9L246.9,32.9z"/>
						</g>
						<g>
							<path class="st30" d="M249.7,32.9L249.7,32.9L249.7,32.9L249.7,32.9L249.7,32.9z M249.7,32.9L249.7,32.9L249.7,32.9
								L249.7,32.9L249.7,32.9z"/>
							<path class="st31" d="M249.7,32.9L249.7,32.9L249.7,32.9L249.7,32.9L249.7,32.9z M249.7,32.9L249.7,32.9L249.7,32.9
								L249.7,32.9L249.7,32.9z"/>
							<path class="st7" d="M249.7,32.9L249.7,32.9L249.7,32.9L249.7,32.9L249.7,32.9L249.7,32.9L249.7,32.9z"/>
							<path class="st32" d="M249.7,32.9L249.7,32.9L249.7,32.9L249.7,32.9L249.7,32.9L249.7,32.9L249.7,32.9z"/>
						</g>
						<path class="st3" d="M249.7,32.9L249.7,32.9L249.7,32.9L249.7,32.9L249.7,32.9L249.7,32.9L249.7,32.9L249.7,32.9z"/>
						<path class="st33" d="M249.7,32.9L249.7,32.9L249.7,32.9L249.7,32.9L249.7,32.9L249.7,32.9L249.7,32.9L249.7,32.9L249.7,32.9
							L249.7,32.9L249.7,32.9L249.7,32.9L249.7,32.9L249.7,32.9L249.7,32.9L249.7,32.9L249.7,32.9h-2.8l0,0l0,0l0,0l0,0l0,0l0,0l0,0
							l0,0l0,0l0,0l0,0l0,0l0,0l0,0l0,0l0,0l0,0v-2.8l0,0l0,0h2.8l0,0V32.9L249.7,32.9L249.7,32.9L249.7,32.9L249.7,32.9L249.7,32.9
							L249.7,32.9z"/>
						<path class="st3" d="M249.7,30.2v2.8l0,0l0,0l0,0V30.2L249.7,30.2L249.7,30.2L249.7,30.2z M249.7,30.2L249.7,30.2L249.7,30.2
							L249.7,30.2v2.8l0,0l0,0l0,0V30.2z"/>
						<path class="st6" d="M246.9,32.9L246.9,32.9L246.9,32.9h2.8l0,0l0,0l0,0H246.9L246.9,32.9z"/>
						<path class="st6" d="M249.7,30.2L249.7,30.2L249.7,30.2L249.7,30.2L249.7,30.2h-2.8l0,0l0,0H249.7L249.7,30.2z"/>
						<path class="st3" d="M246.9,30.2v2.8l0,0h2.8l0,0v-2.8l0,0H246.9L246.9,30.2z M246.9,30.2L246.9,30.2h2.8l0,0v2.8l0,0h-2.8
							l0,0V30.2z"/>
						<path class="st34" d="M246.9,30.2v2.8l0,0h2.8l0,0v-2.8l0,0H246.9L246.9,30.2z"/>
						<path class="st3" d="M246.9,30.2v2.8l0,0l0,0l0,0V30.2L246.9,30.2L246.9,30.2L246.9,30.2z M246.9,30.2L246.9,30.2L246.9,30.2
							L246.9,30.2v2.8l0,0l0,0l0,0V30.2z"/>
						<path class="st34" d="M246.9,30.2v2.8l0,0l0,0l0,0V30.2L246.9,30.2L246.9,30.2L246.9,30.2z"/>
						<path class="st3" d="M246.9,30.2v2.8l0,0l0,0l0,0V30.2L246.9,30.2L246.9,30.2L246.9,30.2z M246.9,30.2L246.9,30.2L246.9,30.2
							L246.9,30.2v2.8l0,0l0,0l0,0V30.2z"/>
						<path class="st34" d="M246.9,30.2v2.8l0,0l0,0l0,0V30.2L246.9,30.2L246.9,30.2L246.9,30.2z"/>
						<path class="st3" d="M246.9,30.2v2.8l0,0l0,0l0,0V30.2L246.9,30.2L246.9,30.2L246.9,30.2z M246.9,30.2L246.9,30.2L246.9,30.2
							L246.9,30.2v2.8l0,0l0,0l0,0V30.2z"/>
						<path class="st34" d="M246.9,30.2v2.8l0,0l0,0l0,0V30.2L246.9,30.2L246.9,30.2L246.9,30.2z"/>
						<path class="st34" d="M249.7,30.2v2.8l0,0l0,0l0,0V30.2L249.7,30.2L249.7,30.2L249.7,30.2z"/>
						<path class="st35" d="M246.9,32.9L246.9,32.9L246.9,32.9z"/>
						<path class="st36" d="M249.7,32.9L249.7,32.9L249.7,32.9L249.7,32.9L249.7,32.9L249.7,32.9z"/>
						<path class="st37" d="M249.7,32.9L249.7,32.9L249.7,32.9L249.7,32.9L249.7,32.9L249.7,32.9L249.7,32.9L249.7,32.9L249.7,32.9
							L249.7,32.9L249.7,32.9L249.7,32.9L249.7,32.9z"/>
						<path class="st31" d="M249.7,32.9L249.7,32.9L249.7,32.9L249.7,32.9L249.7,32.9L249.7,32.9L249.7,32.9L249.7,32.9L249.7,32.9
							L249.7,32.9L249.7,32.9z"/>
						<path class="st37" d="M246.9,32.9L246.9,32.9L246.9,32.9L246.9,32.9L246.9,32.9L246.9,32.9L246.9,32.9L246.9,32.9L246.9,32.9z
							"/>
						<path class="st31" d="M246.9,32.9L246.9,32.9L246.9,32.9L246.9,32.9L246.9,32.9L246.9,32.9L246.9,32.9L246.9,32.9L246.9,32.9
							L246.9,32.9z"/>
						<path class="st38" d="M246.9,32.9L246.9,32.9L246.9,32.9L246.9,32.9L246.9,32.9L246.9,32.9z"/>
						<path class="st34" d="M249.7,32.9L249.7,32.9L249.7,32.9L249.7,32.9L249.7,32.9L249.7,32.9L249.7,32.9L249.7,32.9L249.7,32.9z
							"/>
						<path class="st39" d="M249.7,32.9L249.7,32.9L249.7,32.9L249.7,32.9L249.7,32.9L249.7,32.9L249.7,32.9z"/>
						<path class="st3" d="M249.7,32.9L249.7,32.9L249.7,32.9L249.7,32.9L249.7,32.9L249.7,32.9z"/>
					</g>
				</g>
				<g>
					<g>
						<g>
							<path class="st40" d="M252.4,27.4c0-2.8-2.8-2.8-2.8-2.8c-2.8,0-5.6,0-5.6,2.8s2.8,2.8,5.6,2.8
								C249.7,30.2,252.4,30.2,252.4,27.4z"/>
							<polygon class="st41" points="249.7,35.7 249.7,38.5 246.9,35.7 246.9,32.9 249.7,32.9 							"/>
							<g>
								<path class="st42" d="M249.7,24.6c-2.8,0-2.8,0-2.8,5.6c0,0,0,0,0,2.8c0,0,0,0,2.8,0C249.7,30.2,249.7,24.6,249.7,24.6z"/>
								<path class="st42" d="M244.1,30.2c0,0,0-2.8,2.8-2.8v2.8l0,0C244.1,30.2,244.1,30.2,244.1,30.2z"/>
							</g>
							<g>
								<g>
									<g>
										<path class="st43" d="M249.7,24.6c0,0,2.8,0,2.8,5.6c0,0-2.8,0-2.8,2.8l0,0C249.7,30.2,249.7,24.6,249.7,24.6z"/>
									</g>
									<g>
										<path class="st43" d="M252.4,30.2v-2.8l-2.8,2.8C249.7,30.2,249.7,30.2,252.4,30.2L252.4,30.2z"/>
									</g>
								</g>
							</g>
							<path class="st41" d="M249.7,38.5v-2.8c0,0-2.8,0-2.8-2.8l0,0c0,0,0,0-2.8,2.8v2.8H249.7L249.7,38.5z"/>
							<path class="st41" d="M249.7,38.5v-2.8c0,0,0,0,0-2.8l0,0c0,0,2.8,0,2.8,2.8v2.8H249.7L249.7,38.5z"/>
						</g>
						<path class="st40" d="M249.7,24.6c-2.8,0-2.8,2.8-2.8,2.8c-2.8,0,0,2.8,0,2.8l0,0c0-2.8,0-2.8,0-2.8c2.8,0,2.8,0,2.8,0
							C249.7,24.6,249.7,24.6,249.7,24.6z"/>
						<path class="st40" d="M249.7,27.4c0,0,0,0,2.8,0l0,0c0-2.8-2.8-2.8-2.8-2.8V27.4z"/>
					</g>
					<path class="st44" d="M249.7,38.5v-5.6h-2.8c0,0,0,0-2.8,2.8v2.8H249.7L249.7,38.5z"/>
					<path class="st45" d="M249.7,38.5v-5.6l0,0c0,0,2.8,0,2.8,2.8v2.8H249.7L249.7,38.5z"/>
					<path class="st40" d="M252.4,30.2c0,2.8-2.8,0-2.8,0l0,0c-2.8,0-5.6,2.8-5.6,0v-2.8c0-2.8,2.8-2.8,5.6-2.8l0,0
						c0,0,2.8,0,2.8,2.8V30.2z"/>
					<rect x="246.9" y="32.9" class="st3" width="2.3" height="0.4"/>
				</g>
			</g>
		</g>
		<polygon class="st46" points="241.3,35.7 258,35.7 258,21.8 241.3,21.8 		"/>
		<rect x="235.8" y="57.9" class="st0" width="48.5" height="5"/>
	</g>
</g>
</svg>
