<?xml version="1.0" encoding="utf-8"?>
<!-- Generator: Adobe Illustrator 19.0.0, SVG Export Plug-In . SVG Version: 6.00 Build 0)  -->
<svg version="1.1" id="Layer_1" xmlns="http://www.w3.org/2000/svg" xmlns:xlink="http://www.w3.org/1999/xlink" x="0px" y="0px"
	 viewBox="0 0 87 98" style="enable-background:new 0 0 87 98;" xml:space="preserve">
<style type="text/css">
	.st0{fill:#03435B;}
	.st1{fill:#FF4612;}
	.st2{fill:#9C1C1F;}
	.st3{fill:#BBBFC3;}
	.st4{fill:#EAE9EB;}
	.st5{fill:url(#XMLID_6_);stroke:#9C1C1F;stroke-width:1.4513;stroke-miterlimit:10;}
	.st6{fill:#C62026;stroke:#9C1C1F;stroke-width:2.1769;stroke-miterlimit:10;}
	.st7{fill:url(#XMLID_21_);stroke:#9C1C1F;stroke-width:0.5745;stroke-miterlimit:10;}
	.st8{fill:url(#XMLID_22_);stroke:#9C1C1F;stroke-width:0.5745;stroke-miterlimit:10;}
	.st9{fill:url(#XMLID_25_);stroke:#9C1C1F;stroke-width:0.5745;stroke-miterlimit:10;}
	.st10{fill:url(#XMLID_26_);stroke:#9C1C1F;stroke-width:0.5745;stroke-miterlimit:10;}
	.st11{fill:#FCBB1A;}
	.st12{fill:url(#SVGID_1_);stroke:#9C1C1F;stroke-width:1.4513;stroke-miterlimit:10;}
	.st13{fill:url(#SVGID_2_);stroke:#9C1C1F;stroke-width:0.5745;stroke-miterlimit:10;}
	.st14{fill:url(#SVGID_3_);stroke:#9C1C1F;stroke-width:0.5745;stroke-miterlimit:10;}
	.st15{fill:url(#SVGID_4_);stroke:#9C1C1F;stroke-width:0.5745;stroke-miterlimit:10;}
	.st16{fill:url(#SVGID_5_);stroke:#9C1C1F;stroke-width:0.5745;stroke-miterlimit:10;}
	.st17{fill:url(#SVGID_6_);}
	.st18{fill:#FFFFFF;}
	.st19{font-family:'Raleway-SemiBold';}
	.st20{font-size:12px;}
</style>
<g id="XMLID_1_">
	<g id="XMLID_3_">
		<g id="XMLID_52_">
			<rect id="XMLID_54_" x="24.7" y="19.7" class="st0" width="2.6" height="9"/>
			<rect id="XMLID_53_" x="60.1" y="19.7" class="st0" width="2.6" height="9"/>
		</g>
		<rect id="XMLID_51_" x="6.8" y="40.9" class="st1" width="73.7" height="49.7"/>
		<g id="XMLID_18_">
			<path id="XMLID_50_" class="st2" d="M4.6,39.3v3.9c0,1.8,1.6,3.2,3.6,3.2c2,0,3.6-1.4,3.6-3.2v-3.9H4.6z"/>
			<path id="XMLID_49_" class="st3" d="M11.7,39.3v3.9c0,1.8,1.6,3.2,3.6,3.2c2,0,3.6-1.4,3.6-3.2v-3.9H11.7z"/>
			<path id="XMLID_48_" class="st2" d="M18.8,39.3v3.9c0,1.8,1.6,3.2,3.6,3.2c2,0,3.6-1.4,3.6-3.2v-3.9H18.8z"/>
			<path id="XMLID_47_" class="st3" d="M25.9,39.3v3.9c0,1.8,1.6,3.2,3.6,3.2c2,0,3.6-1.4,3.6-3.2v-3.9H25.9z"/>
			<path id="XMLID_46_" class="st2" d="M33,39.3v3.9c0,1.8,1.6,3.2,3.6,3.2c2,0,3.6-1.4,3.6-3.2v-3.9H33z"/>
			<path id="XMLID_45_" class="st3" d="M40.1,39.3v3.9c0,1.8,1.6,3.2,3.6,3.2c2,0,3.6-1.4,3.6-3.2v-3.9H40.1z"/>
			<path id="XMLID_44_" class="st2" d="M47.2,39.3v3.9c0,1.8,1.6,3.2,3.6,3.2c2,0,3.6-1.4,3.6-3.2v-3.9H47.2z"/>
			<path id="XMLID_43_" class="st3" d="M54.3,39.3v3.9c0,1.8,1.6,3.2,3.6,3.2c2,0,3.6-1.4,3.6-3.2v-3.9H54.3z"/>
			<path id="XMLID_42_" class="st2" d="M61.4,39.3v3.9c0,1.8,1.6,3.2,3.6,3.2c2,0,3.6-1.4,3.6-3.2v-3.9H61.4z"/>
			<path id="XMLID_41_" class="st3" d="M68.6,39.3v3.9c0,1.8,1.6,3.2,3.6,3.2c2,0,3.6-1.4,3.6-3.2v-3.9H68.6z"/>
			<path id="XMLID_40_" class="st2" d="M75.7,39.3v3.9c0,1.8,1.6,3.2,3.6,3.2c2,0,3.6-1.4,3.6-3.2v-3.9H75.7z"/>
			<polygon id="XMLID_39_" class="st1" points="13.5,27.3 4.6,39.3 11.7,39.3 19.4,27.3 			"/>
			<polygon id="XMLID_36_" class="st4" points="19.4,27.3 11.7,39.3 18.8,39.3 25,27.3 			"/>
			<polygon id="XMLID_35_" class="st1" points="24.7,27.3 18.8,39.3 25.9,39.3 30.8,27.3 			"/>
			<polygon id="XMLID_32_" class="st4" points="30.8,27.3 25.9,39.3 33,39.3 35.5,27.3 			"/>
			<polygon id="XMLID_31_" class="st1" points="35.5,27.3 33,39.3 40.1,39.3 40.8,27.3 			"/>
			<polygon id="XMLID_28_" class="st4" points="40.8,27.3 40.1,39.3 47.2,39.3 46.2,27.3 			"/>
			<polygon id="XMLID_27_" class="st1" points="46.2,27.3 47.2,39.3 54.3,39.3 51.6,27.3 			"/>
			<polygon id="XMLID_24_" class="st4" points="51.6,27.3 54.3,39.3 61.4,39.3 57,27.3 			"/>
			<polygon id="XMLID_23_" class="st1" points="56.5,27.3 61.4,39.3 68.6,39.3 62.5,27.3 			"/>
			<polygon id="XMLID_20_" class="st4" points="62.5,27.3 68.6,39.3 75.7,39.3 68.8,27.3 			"/>
			<polygon id="XMLID_19_" class="st1" points="68.8,27.3 75.7,39.3 82.8,39.3 75.4,27.3 			"/>
		</g>
		<linearGradient id="XMLID_6_" gradientUnits="userSpaceOnUse" x1="46.9477" y1="48.4518" x2="14.9337" y2="81.659">
			<stop  offset="0" style="stop-color:#8FD3ED"/>
			<stop  offset="0.5054" style="stop-color:#FFFFFF"/>
			<stop  offset="1" style="stop-color:#8FD3ED"/>
		</linearGradient>
		<rect id="XMLID_17_" x="13.3" y="50.1" class="st5" width="36.9" height="28.1"/>
		<rect id="XMLID_16_" x="56.3" y="62.4" class="st6" width="19.6" height="28.1"/>
		<rect id="XMLID_15_" x="0.3" y="90" class="st2" width="86.7" height="4"/>
		<rect id="XMLID_14_" x="6.8" y="86.8" class="st2" width="48.9" height="2"/>
		<rect id="XMLID_13_" x="6.8" y="83.8" class="st2" width="48.9" height="2"/>
		<g id="XMLID_8_">
			<linearGradient id="XMLID_21_" gradientUnits="userSpaceOnUse" x1="55.7115" y1="52.4859" x2="64.7731" y2="52.4859">
				<stop  offset="0" style="stop-color:#8FD3ED"/>
				<stop  offset="0.5054" style="stop-color:#FFFFFF"/>
				<stop  offset="1" style="stop-color:#8FD3ED"/>
			</linearGradient>
			<path id="XMLID_12_" class="st7" d="M64.8,55.7v-6.4c-4.6,0.2-9.1,1.4-9.1,3.9v2.5H64.8z"/>
			<linearGradient id="XMLID_22_" gradientUnits="userSpaceOnUse" x1="67.3374" y1="52.4859" x2="76.3991" y2="52.4859">
				<stop  offset="0" style="stop-color:#8FD3ED"/>
				<stop  offset="0.5054" style="stop-color:#FFFFFF"/>
				<stop  offset="1" style="stop-color:#8FD3ED"/>
			</linearGradient>
			<path id="XMLID_11_" class="st8" d="M67.3,55.7h9.1v-2.5c0-2.4-4.5-3.7-9.1-3.9V55.7z"/>
			<linearGradient id="XMLID_25_" gradientUnits="userSpaceOnUse" x1="67.3374" y1="58.8028" x2="76.3991" y2="58.8028">
				<stop  offset="0" style="stop-color:#8FD3ED"/>
				<stop  offset="0.5054" style="stop-color:#FFFFFF"/>
				<stop  offset="1" style="stop-color:#8FD3ED"/>
			</linearGradient>
			<rect id="XMLID_10_" x="67.3" y="56.6" class="st9" width="9.1" height="4.3"/>
			<linearGradient id="XMLID_26_" gradientUnits="userSpaceOnUse" x1="55.7115" y1="58.8028" x2="64.7731" y2="58.8028">
				<stop  offset="0" style="stop-color:#8FD3ED"/>
				<stop  offset="0.5054" style="stop-color:#FFFFFF"/>
				<stop  offset="1" style="stop-color:#8FD3ED"/>
			</linearGradient>
			<rect id="XMLID_9_" x="55.7" y="56.6" class="st10" width="9.1" height="4.3"/>
		</g>
		<ellipse id="XMLID_7_" class="st3" cx="59" cy="76.1" rx="1" ry="0.9"/>
		<rect id="XMLID_4_" x="18.8" y="10.8" class="st11" width="49.8" height="11.1"/>
	</g>
</g>
<g>
	<g>
		<rect x="360.9" y="98.3" class="st0" width="4.9" height="18.7"/>
		<rect x="427.7" y="98.3" class="st0" width="4.9" height="18.7"/>
	</g>
	<rect x="327.1" y="142.5" class="st1" width="139.3" height="103.5"/>
	<g>
		<path class="st2" d="M322.9,139.2v8c0,3.7,3,6.7,6.7,6.7c3.7,0,6.7-3,6.7-6.7v-8H322.9z"/>
		<path class="st3" d="M336.3,139.2v8c0,3.7,3,6.7,6.7,6.7c3.7,0,6.7-3,6.7-6.7v-8H336.3z"/>
		<path class="st2" d="M349.7,139.2v8c0,3.7,3,6.7,6.7,6.7c3.7,0,6.7-3,6.7-6.7v-8H349.7z"/>
		<path class="st3" d="M363.2,139.2v8c0,3.7,3,6.7,6.7,6.7c3.7,0,6.7-3,6.7-6.7v-8H363.2z"/>
		<path class="st2" d="M376.6,139.2v8c0,3.7,3,6.7,6.7,6.7c3.7,0,6.7-3,6.7-6.7v-8H376.6z"/>
		<path class="st3" d="M390,139.2v8c0,3.7,3,6.7,6.7,6.7c3.7,0,6.7-3,6.7-6.7v-8H390z"/>
		<path class="st2" d="M403.5,139.2v8c0,3.7,3,6.7,6.7,6.7c3.7,0,6.7-3,6.7-6.7v-8H403.5z"/>
		<path class="st3" d="M416.9,139.2v8c0,3.7,3,6.7,6.7,6.7c3.7,0,6.7-3,6.7-6.7v-8H416.9z"/>
		<path class="st2" d="M430.3,139.2v8c0,3.7,3,6.7,6.7,6.7c3.7,0,6.7-3,6.7-6.7v-8H430.3z"/>
		<path class="st3" d="M443.8,139.2v8c0,3.7,3,6.7,6.7,6.7c3.7,0,6.7-3,6.7-6.7v-8H443.8z"/>
		<path class="st2" d="M457.2,139.2v8c0,3.7,3,6.7,6.7,6.7c3.7,0,6.7-3,6.7-6.7v-8H457.2z"/>
		<polygon class="st1" points="339.8,114.2 322.9,139.2 336.3,139.2 350.9,114.2 		"/>
		<polygon class="st4" points="350.9,114.2 336.3,139.2 349.7,139.2 361.4,114.2 		"/>
		<polygon class="st1" points="360.8,114.2 349.7,139.2 363.2,139.2 372.5,114.2 		"/>
		<polygon class="st4" points="372.5,114.2 363.2,139.2 376.6,139.2 381.3,114.2 		"/>
		<polygon class="st1" points="381.3,114.2 376.6,139.2 390,139.2 391.3,114.2 		"/>
		<polygon class="st4" points="391.3,114.2 390,139.2 403.5,139.2 401.6,114.2 		"/>
		<polygon class="st1" points="401.6,114.2 403.5,139.2 416.9,139.2 411.8,114.2 		"/>
		<polygon class="st4" points="411.8,114.2 416.9,139.2 430.3,139.2 422,114.2 		"/>
		<polygon class="st1" points="421.1,114.2 430.3,139.2 443.8,139.2 432.4,114.2 		"/>
		<polygon class="st4" points="432.4,114.2 443.8,139.2 457.2,139.2 444.3,114.2 		"/>
		<polygon class="st1" points="444.3,114.2 457.2,139.2 470.6,139.2 456.7,114.2 		"/>
	</g>
	<linearGradient id="SVGID_1_" gradientUnits="userSpaceOnUse" x1="404.2538" y1="159.978" x2="341.0285" y2="225.5599">
		<stop  offset="0" style="stop-color:#8FD3ED"/>
		<stop  offset="0.5054" style="stop-color:#FFFFFF"/>
		<stop  offset="1" style="stop-color:#8FD3ED"/>
	</linearGradient>
	<rect x="339.4" y="161.7" class="st12" width="69.8" height="58.6"/>
	<rect x="420.5" y="187.4" class="st6" width="37" height="58.6"/>
	<rect x="314.9" y="244.9" class="st2" width="163.7" height="8.3"/>
	<rect x="327.1" y="238.2" class="st2" width="92.4" height="4.2"/>
	<rect x="327.1" y="232" class="st2" width="92.4" height="4.2"/>
	<g>
		<linearGradient id="SVGID_2_" gradientUnits="userSpaceOnUse" x1="419.5146" y1="166.6787" x2="436.6347" y2="166.6787">
			<stop  offset="0" style="stop-color:#8FD3ED"/>
			<stop  offset="0.5054" style="stop-color:#FFFFFF"/>
			<stop  offset="1" style="stop-color:#8FD3ED"/>
		</linearGradient>
		<path class="st13" d="M436.6,173.3V160c-8.7,0.4-17.1,2.9-17.1,8v5.2H436.6z"/>
		<linearGradient id="SVGID_3_" gradientUnits="userSpaceOnUse" x1="441.4794" y1="166.6787" x2="458.5996" y2="166.6787">
			<stop  offset="0" style="stop-color:#8FD3ED"/>
			<stop  offset="0.5054" style="stop-color:#FFFFFF"/>
			<stop  offset="1" style="stop-color:#8FD3ED"/>
		</linearGradient>
		<path class="st14" d="M441.5,173.3h17.1v-5.2c0-5.1-8.5-7.6-17.1-8V173.3z"/>
		<linearGradient id="SVGID_4_" gradientUnits="userSpaceOnUse" x1="441.4794" y1="179.8394" x2="458.5996" y2="179.8394">
			<stop  offset="0" style="stop-color:#8FD3ED"/>
			<stop  offset="0.5054" style="stop-color:#FFFFFF"/>
			<stop  offset="1" style="stop-color:#8FD3ED"/>
		</linearGradient>
		<rect x="441.5" y="175.3" class="st15" width="17.1" height="9"/>
		<linearGradient id="SVGID_5_" gradientUnits="userSpaceOnUse" x1="419.5146" y1="179.8394" x2="436.6347" y2="179.8394">
			<stop  offset="0" style="stop-color:#8FD3ED"/>
			<stop  offset="0.5054" style="stop-color:#FFFFFF"/>
			<stop  offset="1" style="stop-color:#8FD3ED"/>
		</linearGradient>
		<rect x="419.5" y="175.3" class="st16" width="17.1" height="9"/>
	</g>
	<circle class="st3" cx="425.8" cy="215.9" r="1.9"/>
	<rect x="349.7" y="79.8" class="st11" width="94" height="23.2"/>
</g>
<linearGradient id="SVGID_6_" gradientUnits="userSpaceOnUse" x1="396.7548" y1="236.7881" x2="396.7548" y2="298.9709">
	<stop  offset="0" style="stop-color:#E5E5E5"/>
	<stop  offset="1" style="stop-color:#FFFFFF"/>
</linearGradient>
<path class="st17" d="M466.4,336.2v-75.1h12.2v-6.8H314.9v6.8h12.3v75.1"/>
<text id="XMLID_2_" transform="matrix(1 0 0 1 23.2495 20.8319)" class="st18 st19 st20">TUTOR</text>
</svg>
