<?xml version="1.0" standalone="no"?>
<!DOCTYPE svg PUBLIC "-//W3C//DTD SVG 20010904//EN"
 "http://www.w3.org/TR/2001/REC-SVG-20010904/DTD/svg10.dtd">
<svg version="1.0" xmlns="http://www.w3.org/2000/svg"
 width="2160.000000pt" height="866.000000pt" viewBox="0 0 2160.000000 866.000000"
 preserveAspectRatio="xMidYMid meet">
<metadata>
Created by potrace 1.13, written by Peter Selinger 2001-2015
</metadata>
<g transform="translate(0.000000,866.000000) scale(0.100000,-0.100000)"
fill="#000000" stroke="none">
<path d="M1873 7578 l-1873 -1081 0 -2167 0 -2167 1875 -1082 1875 -1083 1875
1083 1875 1082 0 2167 0 2167 -1874 1081 c-1030 595 -1875 1082 -1877 1082 -2
0 -847 -487 -1876 -1082z m0 -1597 l52 -6 -360 -372 c-198 -204 -360 -371
-361 -370 -1 1 -4 175 -8 386 l-6 383 315 -7 c174 -4 339 -10 368 -14z m1375
-798 l-747 -748 734 -785 c404 -432 735 -788 735 -793 0 -4 -10 -5 -22 -3 -13
3 -151 7 -308 11 -157 3 -329 8 -383 11 l-97 7 -545 564 -545 565 1 437 0 436
530 523 530 522 432 0 432 0 -747 -747z m2817 377 c162 -162 295 -299 295
-305 0 -6 -134 -144 -298 -308 l-297 -297 -300 300 -300 300 -442 -442 -443
-443 437 -437 438 -438 302 302 302 302 283 -288 c156 -159 289 -298 296 -308
13 -18 -10 -43 -284 -319 l-298 -299 -600 0 -601 -1 -442 448 -443 448 0 595
0 595 448 448 447 447 602 -2 603 -3 295 -295z m-4145 -1294 c0 -838 -4 -1327
-10 -1331 -5 -3 -171 -3 -370 1 l-360 7 0 961 0 961 362 362 c200 200 366 363
370 363 5 0 8 -596 8 -1324z"/>
<path d="M18985 4118 l-6 -25 -331 -6 c-182 -4 -460 -7 -618 -7 l-286 0 -178
-777 c-98 -428 -180 -788 -183 -800 l-5 -23 621 0 c342 0 621 2 621 4 0 2 16
74 35 162 19 87 35 160 35 161 0 2 -178 3 -396 3 -372 0 -395 1 -390 18 3 9
24 96 46 192 22 96 43 183 46 193 5 16 32 17 375 17 203 0 369 2 369 4 0 2 16
74 35 162 19 87 35 160 35 161 0 2 -167 3 -371 3 -348 0 -370 1 -365 18 3 9
17 69 31 132 14 63 28 123 31 133 5 16 33 17 404 17 l399 0 16 78 c10 42 23
104 31 137 13 56 12 94 -1 43z"/>
<path d="M15457 4072 c21 -19 16 -19 -588 -26 -335 -4 -612 -5 -617 -2 -7 4
-362 -1517 -362 -1551 0 -10 51 -13 223 -13 l224 0 69 310 69 310 123 -2 123
-3 158 -305 158 -305 251 -3 c139 -1 252 -1 252 1 0 2 -90 165 -199 362 l-199
359 76 33 c215 93 339 233 378 427 33 162 -22 336 -128 406 -26 17 -29 18 -11
2z m-473 -216 c108 -33 150 -105 126 -220 -30 -148 -138 -204 -409 -213 -150
-6 -154 -5 -149 14 3 11 27 113 54 227 l49 206 141 0 c93 0 157 -5 188 -14z"/>
<path d="M16054 4040 c-126 -97 -192 -243 -182 -406 12 -203 143 -330 433
-419 187 -57 351 -113 383 -129 39 -20 79 -68 87 -106 9 -42 -27 -115 -74
-145 -97 -65 -341 -79 -524 -31 -120 31 -225 80 -313 147 -48 36 -74 49 -93
47 -25 -3 -27 -8 -68 -193 -23 -104 -42 -197 -42 -206 -2 -48 327 -129 584
-144 135 -8 371 10 470 35 300 77 470 235 506 472 31 198 -47 345 -234 437
-79 39 -122 54 -405 140 -198 60 -252 98 -252 174 0 89 56 142 180 171 81 20
254 20 340 2 99 -22 245 -81 320 -131 104 -69 100 -72 143 118 21 89 40 173
44 186 3 13 2 22 -3 19 -5 -3 -290 -9 -633 -13 -449 -5 -621 -4 -617 4 11 17
5 14 -50 -29z"/>
<path d="M10493 4026 c-77 -59 -189 -176 -242 -255 -62 -91 -118 -216 -148
-329 -24 -88 -26 -115 -27 -292 -1 -186 1 -199 26 -275 77 -227 252 -369 513
-415 110 -19 399 -8 500 19 241 66 472 239 599 451 92 152 148 319 167 502 19
181 -2 315 -71 453 -34 67 -129 195 -130 173 0 -4 7 -14 16 -23 9 -9 15 -17
13 -19 -2 -2 -281 -6 -619 -10 -586 -6 -614 -5 -591 12 39 27 67 51 59 52 -3
0 -32 -20 -65 -44z m755 -161 c131 -71 187 -225 162 -444 -23 -212 -104 -389
-236 -518 -80 -78 -131 -103 -247 -123 -72 -13 -152 -3 -215 27 -54 26 -119
99 -143 162 -31 78 -37 269 -15 400 35 202 171 403 326 481 93 47 104 50 215
47 89 -2 106 -6 153 -32z"/>
<path d="M13840 4058 c0 -9 -7 -19 -16 -22 -30 -11 -422 -7 -426 5 -2 6 -56
-217 -121 -496 -81 -349 -126 -524 -145 -563 -63 -130 -169 -195 -317 -195
-138 -1 -230 47 -256 133 -20 66 -2 174 104 638 59 255 107 464 107 465 0 1
-102 1 -227 -1 l-228 -3 -103 -437 c-116 -490 -126 -546 -120 -684 4 -88 9
-106 42 -172 61 -124 159 -195 341 -248 73 -21 100 -23 300 -23 198 0 228 2
305 23 111 30 233 90 293 142 98 87 191 251 241 425 35 124 237 1018 231 1024
-3 2 -5 -3 -5 -11z"/>
<path d="M8702 3938 c-100 -101 -149 -167 -200 -267 -92 -176 -125 -321 -124
-546 0 -120 4 -165 21 -228 81 -302 302 -446 686 -447 205 0 370 36 565 123
l56 25 47 198 c26 110 47 202 47 207 0 4 -13 7 -30 7 -19 0 -48 -14 -82 -41
-67 -51 -276 -153 -348 -170 -77 -18 -214 -16 -281 4 -123 37 -190 126 -209
282 -11 89 0 243 25 340 53 208 214 390 393 445 77 24 212 27 287 6 112 -31
252 -116 308 -188 18 -23 30 -29 52 -26 28 3 30 6 61 131 18 71 35 145 39 165
l7 35 -634 -6 c-548 -5 -630 -4 -614 9 11 7 17 16 14 19 -3 3 -41 -32 -86 -77z"/>
</g>
</svg>
